<svg id="Layer_1" data-name="Layer 1" xmlns="http://www.w3.org/2000/svg" viewBox="0 0 612 792"><defs><style>.cls-1{fill:#fcc908;}.cls-2{fill:#01274c;}.cls-3{fill:#090d06;}.cls-4{fill:#533a28;}.cls-5{fill:#7f4f2a;}.cls-6{fill:#423630;}.cls-7{fill:#149e49;}.cls-8{fill:#7e4f29;}.cls-9{fill:#fec80c;}.cls-10{fill:#fdc80d;}.cls-11{fill:#fac611;}.cls-12{fill:#585148;}.cls-13{fill:#0f294a;}.cls-14{fill:#be7276;}.cls-15{fill:#f2f0f0;}.cls-16{fill:#f0eeee;}.cls-17{fill:#784b27;}.cls-18{fill:#dcdada;}.cls-19{fill:#b66f73;}.cls-20{fill:#cac8c8;}.cls-21{fill:#070504;}.cls-22{fill:#fbc80f;}.cls-23{fill:#fbc810;}.cls-24{fill:#0b0807;}</style></defs><path class="cls-1" d="M506.35,208c0,7.8.24,15.16-.05,22.49-.86,22-1.95,43.94-2.93,65.91A382.35,382.35,0,0,1,466.55,445c-9.56,20.14-21.81,38.83-35,56.85-13.44,18.36-29.23,34.45-46.41,49.26-5.58,4.81-11,9.79-16.78,14.37a180.36,180.36,0,0,1-38.23,23.61c-2.81,1.26-5.16.32-7.65-.95-19-9.67-35.72-22.37-51.58-36.54-14.51-13-28.71-26.16-40.66-41.5-29.93-38.46-52.48-80.73-64.23-128.28-4.1-16.57-7.91-33.26-10.72-50.09-2-11.92-2.3-24.14-3-36.25-1.14-20.3-2.07-40.61-2.91-60.92-.33-8-.08-16-.33-24-.09-2.95,2-2.83,3.67-3.12q11.63-2.05,23.3-3.85c36.51-5.58,72.14-14.24,105.73-30C295.92,166.94,310,160,324,153.13a8.18,8.18,0,0,1,7.9-.07c18.12,8.65,36.12,17.63,54.56,25.56,25.89,11.12,53,18.18,80.87,22.59C480.29,203.27,493.22,205.69,506.35,208Zm-8,7.1c-1.51-.35-2.5-.63-3.5-.81-11.93-2.13-23.84-4.36-35.8-6.33-24.5-4-48.49-10.11-71.34-19.85-18.74-8-37-17-55.47-25.73a7.44,7.44,0,0,0-7.31,0c-7.24,3.79-14.56,7.45-21.91,11-28.65,14-58.17,25.65-89.61,31.69-16.38,3.14-32.84,5.79-49.29,8.54-5.45.91-5.65.75-5.44,6.31,1,26.12,1.93,52.25,3.15,78.36.53,11.18,1.1,22.43,2.74,33.48,1.92,12.88,4.8,25.65,7.68,38.37,11,48.47,32.54,92,62.92,131.15,12.12,15.64,26.58,29,41.34,42.14a236.07,236.07,0,0,0,45.77,32.45c3.66,2,6.94,2.24,10.8.26A196.65,196.65,0,0,0,371.39,551c20.68-17.7,40.53-36.11,56.58-58.38,24.28-33.69,42.91-70,53.52-110.3,6.43-24.38,11.74-49,12.8-74.28.52-12.33,1.5-24.64,2-37C497.1,252.47,497.67,233.91,498.34,215.07Z"/><path class="cls-2" d="M498.34,215.07c-.67,18.84-1.24,37.4-2,55.94-.53,12.34-1.51,24.65-2,37-1.06,25.32-6.37,49.9-12.8,74.28-10.61,40.27-29.24,76.61-53.52,110.3-16.05,22.27-35.9,40.68-56.58,58.38a196.65,196.65,0,0,1-38.32,25.17c-3.86,2-7.14,1.7-10.8-.26a236.07,236.07,0,0,1-45.77-32.45c-14.76-13.12-29.22-26.5-41.34-42.14-30.38-39.19-51.91-82.68-62.92-131.15-2.88-12.72-5.76-25.49-7.68-38.37-1.64-11.05-2.21-22.3-2.74-33.48-1.22-26.11-2.18-52.24-3.15-78.36-.21-5.56,0-5.4,5.44-6.31,16.45-2.75,32.91-5.4,49.29-8.54,31.44-6,61-17.69,89.61-31.69,7.35-3.59,14.67-7.25,21.91-11a7.44,7.44,0,0,1,7.31,0C350.67,171,369,180.1,387.7,188.08c22.85,9.74,46.84,15.81,71.34,19.85,12,2,23.87,4.2,35.8,6.33C495.84,214.44,496.83,214.72,498.34,215.07Z"/><path class="cls-3" d="M188.51,421.46c-1.54-3-1.66-4.94-3.2-7.95,0-.5.2-2.29.19-2.79.6,1.09.89,2.74,1.48,3.84.5.94.82,2.37,1.6,2.86.63.4,17.58-6.25,18.54-6.45,3.14-.64,6.33-1.15,9.41-2,4-1.16,8-2.57,12-4,3.79-1.31,7.58-2.64,11.3-4.15A82.59,82.59,0,0,0,250,396.17c4.25-2.44,8.3-5.27,12.36-8,4.32-2.95,8.56-6,12.83-9.05,3.82-2.7,7.62-5.41,11.45-8.09,1.66-1.16,3.21-2.79,5.07-3.32a18.69,18.69,0,0,1,15.12,2.11c2.58,1.53,5.06,3.59,7.87,4.3A63,63,0,0,0,328.85,376c3.24.05,6.52-1.18,9.75-2,.7-.17,1.26-.87,1.89-1.33a11.22,11.22,0,0,0-3.69-.06c-3.87.38-7.83,1.19-11.21-1.64-1.25-1-2.74-2.07-3.41-3.45s-.46-3.19-.66-4.9c-7.06,0-14.42,0-21.78,0-1.57,0-2.21-.59-2.11-2.07a21.46,21.46,0,0,0,.32-3.88c-.22-1.82.83-2.74,2-3.64a10.25,10.25,0,0,1,1.58-.82c-.88-1.09-1.66-2.1-2.5-3.07s-1.72-1.94-2.63-2.87c-1.69-1.72-2-5.05-.17-6.34a8.61,8.61,0,0,1,4.6-1.61c5.91-.07,11.83.17,17.75.31.37,0,.73.15,1.1.15,4.92,0,9.87.35,14.74-.12,3.88-.37,7.67-1.71,11.5-2.65s7.39-1.79,11.05-2.79a23.12,23.12,0,0,0,3.27-1.39c-1.23-1.62-2.41-3.07-3.46-4.6-.94-1.37-1.67-2.9-2.65-4.24-2.81-3.86-3.55-7.89-1.17-12.2,1-1.82,2.19-3.53,3.31-5.32a54.1,54.1,0,0,0-6.82-2.54c-4.52-1-6.6-4.6-7.79-8.23-1.83-5.58-3.67-11.08-6.86-16.05-1.1-2-2.19-3.95-3.18-5.72l-14.11,5.75a2.08,2.08,0,0,0-.56,0c-6.31,1.79-12.64,3.51-19.21,4.13l-19.61,1.84c-7.91-.25-15.81-.38-23.69-.8-4.07-.22-8.12-.89-12.17-1.51-2.19-.33-4.36-.89-6.52-1.44-3.76-1-7.51-2-11.23-3-2.28-.66-4.5-1.51-6.71-2.27-1.82,4.83-3.53,9.43-5.27,14a2.92,2.92,0,0,1-3.38,1.52,2.56,2.56,0,0,1-1.47-3.49c1.87-4.77,3.71-9.55,5.53-14.25-2.24-1.58-4.63-2.87-6.51-4.71-1.68-1.64-3-1.15-4.61-.35-3,1.48-6,2.83-8.92,4.4a18.71,18.71,0,0,0-3.09,2.64c0-.06-27.27,6.91-27.27,6.91-.23-.51-1.71-1.21-1.8-1.56.52-1.64,17.94-7.14,26.36-10.58,2.56-1.05,4.29-1.91,4.45-2.4l1.25-.76c3.82-1.93,7.62-3.89,11.45-5.78,2-1,4-1.85,6-2.81,3.06-1.46,6.12-3,9.14-4.5a2.52,2.52,0,0,0,1.1-1.3c.35-1,.46-2.11.78-3.14,1.15-3.63,3.12-6.54,6.78-8.16a21,21,0,0,1,18.32.33,6.78,6.78,0,0,0,3.09.91c4.76-.35,9.5-1.26,14.25-1.31,7.09-.07,14.19.34,21.27.69,4.83.24,9.65.73,14.48,1.14a40.24,40.24,0,0,1,4.78.58c2.3.46,4.56,1.2,6.87,1.61,3.65.63,6.81-1.14,10.06-2.36,2.69-1,4.31-.24,5.8,2.19a23.61,23.61,0,0,1,3.6,10.51c.17,1.84.93,3.79.51,5.47s.29,2.69.95,3.88c.19.34.7.5.9.83,3,5.08,5.8,10.26,9,15.23,2.23,3.48,2.9,7.43,4.17,11.22.86,2.59,2.28,4.79,5,5.77,1.26.45,2.57.81,3.82,1.29,5.47,2.07,11.39,2.89,16.44,6.07,2,1.29,4.32,2.61,4.61,5.22a22.42,22.42,0,0,1-1.64,11.61,34.43,34.43,0,0,0-1.63,4.27,14.31,14.31,0,0,1-6.11,8.22c-2,1.28-4.39,1.88-6.58,2.84-.54.23-1.24.55-1.45,1-.88,1.94-1.65,3.93-2.37,5.94-.51,1.42-1.15,2.46-3.09,1.64a12.61,12.61,0,0,1-.36,2.56,2.64,2.64,0,0,1-1.2,1.42c-.29.12-1.17-.42-1.34-.84-1-2.42-1.9-4.9-2.79-7.24l-19.29,2.25a21.36,21.36,0,0,0-2.35-.32c-6.55-.19-13.1-.34-19.64-.52-1.37,0-2.74-.17-4.42-.28.71,1.42,1.28,2.44,1.74,3.52.52,1.24,1.29,1.22,2.35.74.63-.29,1.62-.73,2-.47,2,1.37,4.12,2.71,4.59,5.8a24.45,24.45,0,0,1,2.71-1,4.74,4.74,0,0,1,2,0c.39.07.71.65,1.08.66,3.14.06,6.29,0,9.25,0,0-2.24,0-4.14,0-6,0-.13.38-.26.59-.39,2.74.37,3,.88,2.47,4.31.79.28,1.58.52,2.35.84s1.28.91,1.92.9c4,0,8-.25,11.95-.31,9.92-.15,19.83-.23,29.75-.38,6-.09,12-.28,17.95-.37,9.72-.15,19.46-.25,29.18-.38,8.11-.11,16.21-.29,24.32-.39,2.69,0,3.73,1.74,2.64,4.23a4,4,0,0,0-.27,2,3.35,3.35,0,0,1-2,3.63,1.8,1.8,0,0,0-.9,1.34c.2,2,.56,3.91.9,5.87.79,4.43,1.32,8.83-.63,13.13-.78,1.72-1.43,3.5-2.23,5.21a40.32,40.32,0,0,1-2.65,5.2c-2.12,3.21-4.52,6.26-6.62,9.49a8.36,8.36,0,0,0-1.51,4.13c0,3.11-.26,6.19.77,9.37a71.81,71.81,0,0,0,4.92,11,90.37,90.37,0,0,0,10.3,15.6c1.69,2.07,1.12,4.34-1.63,4.91-5.12,1.06-10.23,2.35-15.41,3-6,.72-12.13.92-18.21,1.16-2.78.12-5.59-.36-8.38-.31-10.86.19-21.75-.69-32.57,1.08-2.78.46-5.6.68-8.4,1.08a15.17,15.17,0,0,0-2.64.72c-3,1-5.27-.34-5.28-3.31,0-5.06-1.88-9.52-4.15-13.88a37.58,37.58,0,0,1-3.67-14.14,26.22,26.22,0,0,1,.71-7.13,29.94,29.94,0,0,1,2-7.24c1.77-3.72,4-7.23,6.05-10.81,1.12-1.93,2.66-3.68,3.46-5.72a35.06,35.06,0,0,0,2.55-9.07,20.22,20.22,0,0,0-.94-8.2c-1.21-3.68-3.11-7.12-4.74-10.71-2.63,0-5.12-.05-7.61.05a2.33,2.33,0,0,0-1.43.87c-1.57,1.84-3.07,3.73-4.71,5.75a6.93,6.93,0,0,1-2.72,8.86,28.33,28.33,0,0,1-15.8,3.91,58.81,58.81,0,0,1-5.91-.71,54.83,54.83,0,0,1-8.13-1.42c-2.33-.72-4.43-2.18-6.66-3.26s-4.62-2.32-7-3.26c-2.93-1.15-5.6-.54-8.19,1.39-4.89,3.64-9.93,7.07-14.93,10.56q-8.22,5.75-16.47,11.42c-2.92,2-5.7,4.38-8.9,5.84-5.61,2.57-11.46,4.68-17.28,6.77-3.5,1.25-7.12,2.12-10.7,3.11q-4.74,1.32-9.5,2.53c-2.22.58-4.46,1.07-6.69,1.59C206.5,415.87,189,421.48,188.51,421.46Zm151.57-59.53c-1.34.53-3.48-.56-3.9,2.15a9.85,9.85,0,0,1,1.4-.46c1.3-.21,2.61-.36,3.92-.54,2.66-.37,3-.1,3.68,3.08,2.16-3.11,5.16-5.4,5.42-9.84-1.25.78-2,1.35-2.88,1.79C345.19,359.4,342.63,360.66,340.08,361.93ZM352,354.34c1.9,1.7.75,3.65.44,5.61.51,0,1,.07,1.48.07,7.48-.08,15-.13,22.46-.27q33.33-.58,66.65-1.22c6-.11,6,0,5.61-6.08,0-.09-.16-.18-.27-.31H446.5l-69.27,1.2c-8.42.15-16.85.26-25.27.39l-51.31.85c-.31,2.15-.61,4.27-.93,6.56h2.12c7-.13,14-.42,20.94-.35,4.29,0,7.63-1.26,10.23-4.72,1.6-2.12,1.74-2,3.25-.13a2.81,2.81,0,0,1,.34,1.16c.2,1.11.38,2.21.52,3a27.64,27.64,0,0,0,3.48-.94,36.94,36.94,0,0,0,5.64-2.69C348,355.39,349.6,353.93,352,354.34Zm10.8,8.69a10.17,10.17,0,0,0,.69,1.54c4,5.94,4.6,12.56,3.51,19.37a26.34,26.34,0,0,1-2.62,7.9c-2.06,4-4.67,7.66-6.93,11.53-3.68,6.27-5.8,13-4.25,20.27a51.49,51.49,0,0,0,3.23,10.08c2,4.66,3.87,9.3,4.15,14.43.08,1.67,1,2.13,2.73,1.67a60.61,60.61,0,0,1,6.23-1.34c1.9-.29,3.84-.3,5.77-.47,5-.43,10.07-1,15.11-1.3,2.66-.18,5.34-.07,8,0,4.5.16,9-.21,13.52.5,3.42.54,7.06-.36,10.61-.54,3.85-.2,7.75-.07,11.57-.55,4.49-.57,8.91-1.63,13.36-2.52.55-.1,1.42-.4,1.47-.71a2.91,2.91,0,0,0-.58-1.8c-1.39-2-2.95-3.84-4.29-5.84-1.73-2.57-3.35-5.2-4.93-7.86a33.42,33.42,0,0,1-1.71-3.63c-1.28-2.91-3.06-5.73-3.68-8.79-.77-3.73-.62-7.65-.71-11.5a6.84,6.84,0,0,1,.8-3.62,104.9,104.9,0,0,1,6.7-9.64c2.86-3.56,4.24-7.8,5.8-11.93s0-8.62-.05-12.94a7.4,7.4,0,0,0-.72-2.82c-.52-1.16-1.34-2.18-2.86-1.71-2.18.67-4.34,1.44-6.52,2.15a59.55,59.55,0,0,1-6.92,2.17,82.49,82.49,0,0,1-8.45,1c-5.07.46-10.13,1-15.22,1.23-4.1.17-8.21-.15-12.32-.25l-.75-.06c-7.19-1.14-14.54-.93-21.68-2.55C368.28,363.93,365.68,363.55,362.76,363ZM321.88,259.49c-.83-.87-1.24-1.32-1.67-1.76-3.56-3.66-7.23-6.75-12.67-7.75-9-1.65-17.92-3-27.05-3.14l-1.5,0c-8.21,0-16.43,0-24.65.08-.38,0-.77.37-1.25.62,2.74,3,6.08,3.87,9.66,4.24.61.06,1.45,0,1.77.42a4.65,4.65,0,0,1,1.43,2.67,2.21,2.21,0,0,1-2.33,2.16,23.24,23.24,0,0,1-7.9-1.57c-3.57-1.16-5.83-3.94-8.16-6.52a12.7,12.7,0,0,0-9.39-4.24c-1.8-.08-3.61.56-5.43.63-3.41.13-5.1,2.47-6.19,5.09a46,46,0,0,0-2.26,8.42,2.42,2.42,0,0,0,.81,2.09,19.05,19.05,0,0,0,4.75,2q9.18,2.24,18.42,4.22c7.21,1.55,14.57,1.63,21.9,1.81,4.85.11,9.72,0,14.56-.39a107.62,107.62,0,0,0,13.28-1.7c5.2-1,10.35-2.43,15.45-3.92A90,90,0,0,0,321.88,259.49Zm-115.07,6.42a15.76,15.76,0,0,0,1.59,1.69c7.55,5.88,16.49,8.65,25.53,11,4.64,1.21,9.5,1.56,14.24,2.41a136.49,136.49,0,0,0,24.39,1.77c4.79,0,9.6-.29,14.38-.75,5.43-.52,10.87-1.18,16.24-2.13,4.17-.74,8.24-2,12.37-3a66.87,66.87,0,0,0,15-6c-2.23-3-4.4-6-6.55-8.9-.55-.75-.95-.81-2-.4a138.54,138.54,0,0,1-14.61,5.4c-4.44,1.24-9.12,1.59-13.66,2.48A118.54,118.54,0,0,1,272,271.16a117.22,117.22,0,0,1-13.63-.74c-5.66-.6-11.31-1.43-16.93-2.36a60.35,60.35,0,0,1-8.21-2.12,93.64,93.64,0,0,1-10.32-3.79c-2.65-1.22-5-2.46-7.74-.33a12,12,0,0,1-2.28,1.17C211,263.94,209,264.86,206.81,265.91Zm156.87,65a23.12,23.12,0,0,0,2.72-3c3.06-4.61,4.24-9.88,5-15.26.06-.51-.53-1.25-1-1.65-3.52-2.93-7.83-4-11.95-5.06-.48.73-.92,1.35-1.31,2a37.24,37.24,0,0,0-3.23,5.8c-.72,2-1,4.28.45,6.23,1.12,1.49,2.54,2.78,3.51,4.35C359.31,326.8,360.69,329.3,363.68,330.87Zm7.06,31c0,.08,0,.16,0,.25a38.19,38.19,0,0,1,4,.42c2.15.44,4.24,1.28,6.4,1.52,3.73.42,7.47,0,11.26.67a64,64,0,0,0,12.85.47c4.05-.12,8.09-.7,12.13-1.07,3.06-.27,6.16-.32,9.18-.84s5.74-1.47,8.37-2.18c-5.25,0-10.65,0-16.06,0q-20.49.17-41,.4C375.56,361.57,373.15,361.76,370.74,361.89Zm-36.36-4.53c-.39.46-.59.69-.78.93-1.25,1.63-2.37,3.35-4.65,3.75-1.52.26-1.9,1.68-2.38,2.87-.11.27.22.86.51,1.1a11.13,11.13,0,0,0,1.91,1.15c1.1.57,2.23.69,3-.45s1.39-2.59,2.11-3.87A6.44,6.44,0,0,0,334.38,357.36ZM319.73,249.73l5.61,5.91c-.58-2.63-.54-5.32-2.85-7.14Zm31.53,96.43c1-2.18,2-4.09.52-6.54-.66.5-1.93,1.08-1.88,1.49A36.1,36.1,0,0,0,351.26,346.16Zm-9.93,21.2h2.39l-1.35-2.6Z"/><path class="cls-4" d="M161,280.8c.11.41.79.39,1.21.68a1.53,1.53,0,0,1,.59.88c.55,9.82,1,17.89,1.31,27.66.55,6.59,1.1,12.13,1.71,18.66a72.38,72.38,0,0,0,1.86,9.44c.61,4.17,1.7,8.56,2.42,12.73,1.75,9.55,3.07,16.38,5.5,25.06,2,7,5.49,22.18,7.73,29.16.62,1.74.15.74.83,2.46,1.1,2.76.17.45,1.3,3.19,0,.5-.19,2.29-.19,2.79-4.21-9.79-7.26-21.26-10.2-31.77-2.46-9.53-4.75-19.64-6.85-29.69-2-9.82-3.61-19.42-4.71-29.41C162.31,307.83,161.73,296.25,161,280.8Z"/><path class="cls-5" d="M180.69,395.51c-2.23-7-1.92-8.22-3.89-15.28-2.43-8.67-4-16.17-5.86-25.07-.65-3.85-2-10.53-2.81-14.55-.16-3.17-1.38-6.37-2-9.82-.7-6.32-1.95-16.23-2.09-23.07-.62-9.43-.91-14.89-1.24-25.36.13-.47,27.23-6.42,27.25-6.91a18.64,18.64,0,0,1,3.09-2.64c2.91-1.58,6-2.92,8.92-4.4,1.62-.8,2.94-1.29,4.62.35,1.87,1.83,4.27,3.13,6.51,4.71-1.82,4.69-3.66,9.48-5.53,14.25a2.54,2.54,0,0,0,1.47,3.49,2.91,2.91,0,0,0,3.38-1.52c1.73-4.6,3.45-9.2,5.27-14,2.21.76,4.43,1.61,6.7,2.27,3.72,1.09,7.48,2.07,11.23,3a66.74,66.74,0,0,0,6.53,1.44c4,.61,8.09,1.29,12.16,1.51,7.89.43,15.8.55,23.69.8a5.12,5.12,0,0,0-.95.52,34.92,34.92,0,0,0-9.62,12.36c-.65,1.43-1.71,3.16-.62,5.2,2.26,4.19,5.9,6.22,10.26,7.41a58.43,58.43,0,0,1,6.09,1.83,3.34,3.34,0,0,1,1.47,5.34,20.39,20.39,0,0,1-4.51,4.2c-2.82,1.78-5.87,3.18-8.83,4.72-5.26,2.76-10.52,5.53-15.8,8.25-3.91,2-4.58,4.37-1.55,7.51a33.72,33.72,0,0,0,6.95,5.16,5.44,5.44,0,0,1,2.19,7.47,25.9,25.9,0,0,1-6.14,7.27c-3,2.51-6.1,5-9.29,7.28A99.17,99.17,0,0,1,237,376.43a80.46,80.46,0,0,1-15.69,6.47c-7.4,2.13-14.69,4.69-22,7.13C198,390.44,181.88,394.89,180.69,395.51Z"/><path class="cls-6" d="M180.69,395.51c1.19-.62,17.31-5.08,18.57-5.49,7.31-2.45,14.59-5,22-7.13A79.88,79.88,0,0,0,237,376.41a97.74,97.74,0,0,0,10.83-7.19c3.19-2.29,6.26-4.76,9.29-7.27a26.2,26.2,0,0,0,6.14-7.27,5.44,5.44,0,0,0-2.19-7.47,34.46,34.46,0,0,1-6.95-5.16c-3-3.13-2.36-5.49,1.55-7.51,5.28-2.72,10.54-5.5,15.8-8.25,3-1.55,6-3,8.83-4.72a20.63,20.63,0,0,0,4.51-4.2,3.34,3.34,0,0,0-1.47-5.34,61,61,0,0,0-6.09-1.84c-4.36-1.17-8-3.22-10.26-7.4-1.09-2,0-3.77.62-5.2a34.87,34.87,0,0,1,9.62-12.37,5.08,5.08,0,0,1,.95-.51l19.62-1.84c6.57-.62,12.89-2.34,19.21-4.14a2.1,2.1,0,0,1,.56,0c.68.4,1.36.81,2.06,1.19,2.34,1.31,4.66,2.63,7,3.88,1.33.71,3.08,1.17,3.84-.28a16.35,16.35,0,0,1,4.37-4.83c3.19,5,5,10.47,6.86,16.05,1.2,3.64,3.27,7.2,7.78,8.23a54.23,54.23,0,0,1,6.83,2.54c-1.12,1.79-2.3,3.5-3.31,5.32-2.39,4.31-1.64,8.34,1.17,12.2,1,1.34,1.7,2.87,2.64,4.24,1.07,1.53,2.24,3,3.46,4.6a22.48,22.48,0,0,1-3.26,1.39c-3.67,1-7.37,1.89-11.06,2.79s-7.61,2.28-11.5,2.65c-4.87.47-9.82.12-14.73.12-.37,0-.73-.14-1.11-.15-5.91-.14-11.83-.38-17.74-.32a8.68,8.68,0,0,0-4.6,1.62c-1.8,1.28-1.53,4.62.16,6.34.91.93,1.79,1.88,2.64,2.87s1.61,2,2.5,3.07a9.81,9.81,0,0,0-1.58.82c-1.19.9-2.24,1.82-2,3.64a21.44,21.44,0,0,1-.31,3.88c-.1,1.47.54,2.09,2.1,2.07,7.36-.06,14.73,0,21.79,0,.18,1.72,0,3.53.65,4.91s2.17,2.4,3.41,3.44c3.38,2.84,7.33,2,11.21,1.65a11.28,11.28,0,0,1,3.7.06c-.63.46-1.19,1.16-1.89,1.33-3.23.78-6.51,2-9.76,2a63.1,63.1,0,0,1-14.14-1.92c-2.81-.71-5.28-2.77-7.86-4.3a18.67,18.67,0,0,0-15.13-2.11c-1.85.53-3.41,2.15-5.07,3.32-3.82,2.68-7.63,5.39-11.44,8.09-4.27,3-8.51,6.1-12.83,9.05-4.07,2.78-8.11,5.6-12.37,8a83.52,83.52,0,0,1-10.22,4.66c-3.71,1.51-7.5,2.83-11.29,4.15-4,1.39-7.93,2.8-12,4-3.08.89-6.26,1.4-9.41,2a22.8,22.8,0,0,0-3,1.08c-1.27.48-15.06,6.32-15.56,5.39-1.16-.66-2.48-5.61-3.08-6.7a40.82,40.82,0,0,1-2.7-7.52C182.25,401.42,181.19,397.41,180.69,395.51Zm121.52-99.19a3.57,3.57,0,0,0,3.54-1.67c1.28-1.78.83-2.95-1.27-3.5a21.55,21.55,0,0,0-3.24-1,11,11,0,0,0-4.2.28c-1.47.45-1.61,2.12-.66,3.37A6.52,6.52,0,0,0,302.21,296.32Z"/><path class="cls-7" d="M362.76,363c2.92.52,5.52.9,8.07,1.48,7.14,1.63,14.49,1.41,21.69,2.55a6.16,6.16,0,0,0,.75.05c4.1.11,8.23.42,12.32.26,5.08-.2,10.15-.78,15.22-1.23a79.79,79.79,0,0,0,8.45-1,61.54,61.54,0,0,0,6.92-2.17c2.17-.72,4.33-1.49,6.52-2.16,1.52-.47,2.34.55,2.86,1.72a7.58,7.58,0,0,1,.72,2.82c.06,4.32,1.64,8.72.05,12.94s-2.93,8.37-5.81,11.93a105.4,105.4,0,0,0-6.69,9.64,6.75,6.75,0,0,0-.8,3.62c.08,3.84-.06,7.77.7,11.5.62,3.05,2.41,5.88,3.69,8.79a35.18,35.18,0,0,0,1.7,3.62c1.59,2.66,3.21,5.3,4.93,7.86,1.35,2,2.9,3.87,4.29,5.84a2.83,2.83,0,0,1,.58,1.81c0,.3-.92.6-1.46.71-4.45.89-8.87,1.95-13.36,2.52-3.82.48-7.72.35-11.58.55-3.54.18-7.18,1.08-10.61.54-4.54-.72-9-.34-13.52-.5-2.66-.09-5.35-.19-8,0-5.05.34-10.08.87-15.11,1.31-1.93.16-3.87.18-5.77.47a62.76,62.76,0,0,0-6.23,1.34c-1.73.46-2.64,0-2.74-1.67-.27-5.14-2.12-9.78-4.15-14.43a51.92,51.92,0,0,1-3.23-10.08c-1.54-7.31.58-14,4.25-20.27,2.27-3.87,4.87-7.57,6.94-11.54A26.47,26.47,0,0,0,367,384c1.09-6.8.52-13.43-3.51-19.37A9,9,0,0,1,362.76,363Zm39.8,30c-.39-.51-.76-1.43-1.36-1.64a3.49,3.49,0,0,0-2.38.36c-.47.23-.74,1-1,1.53q-5.06,11.56-10.07,23.12c-.75,1.74-.39,3.13,1,3.64,1.75.65,2.44-.47,3-1.85,3.34-7.72,6.72-15.41,10.08-23.12C402.11,394.47,402.27,393.86,402.56,393Zm-25.92,16.26c1.94-1.48,3.75-2.79,5.48-4.2,1.48-1.19,1.77-2.65.81-3.69-1.26-1.35-2.5-.68-3.63.21-2.4,1.89-4.77,3.81-7.14,5.72-1.74,1.4-1.81,2.77-.07,4.13,2.5,1.95,5.06,3.83,7.63,5.69,1.17.84,2.48,1.14,3.47-.2s.31-2.44-.86-3.34Zm37.21,0-5.9,4.5a2.2,2.2,0,0,0-.76,3.1,2,2,0,0,0,3.12.51q4.35-3.06,8.52-6.37a1.91,1.91,0,0,0,0-3.22c-2.78-2.3-5.63-4.54-8.51-6.71a1.74,1.74,0,0,0-2.76.39,4.09,4.09,0,0,0,.06,2.88c.25.65,1.16,1.07,1.8,1.57Z"/><path class="cls-8" d="M321.88,259.49a88.06,88.06,0,0,1-8.41,3.42c-5.1,1.5-10.24,2.88-15.45,3.92a107.48,107.48,0,0,1-13.27,1.71c-4.84.35-9.72.5-14.57.38-7.32-.17-14.68-.26-21.89-1.8q-9.24-2-18.43-4.23a19.34,19.34,0,0,1-4.75-2,2.45,2.45,0,0,1-.81-2.1,47.71,47.71,0,0,1,2.26-8.42c1.09-2.61,2.78-5,6.19-5.09,1.82-.07,3.64-.7,5.43-.63a12.76,12.76,0,0,1,9.4,4.24c2.32,2.58,4.59,5.36,8.15,6.53a23.43,23.43,0,0,0,7.9,1.56,2.22,2.22,0,0,0,2.34-2.16,4.67,4.67,0,0,0-1.44-2.67c-.32-.37-1.15-.36-1.77-.42-3.57-.37-6.91-1.26-9.66-4.24.49-.25.87-.62,1.26-.62,8.21,0,16.43-.06,24.65-.08l1.5,0c9.12.09,18.07,1.5,27,3.14,5.44,1,9.12,4.1,12.67,7.76Z"/><path class="cls-9" d="M206.81,265.91l6.12-2.91a13.23,13.23,0,0,0,2.28-1.17c2.72-2.13,5.09-.89,7.74.33A90.93,90.93,0,0,0,233.27,266a60,60,0,0,0,8.21,2.12c5.62.93,11.27,1.76,16.93,2.36a132,132,0,0,0,35.39-1c4.54-.89,9.22-1.24,13.65-2.48a134.23,134.23,0,0,0,14.62-5.41c1-.41,1.41-.35,2,.41,2.16,2.94,4.32,5.86,6.56,8.89a66.9,66.9,0,0,1-15,6.05c-4.13,1-8.2,2.3-12.38,3-5.37.95-10.81,1.61-16.23,2.13-4.78.46-9.59.73-14.39.75A136.63,136.63,0,0,1,248.17,281c-4.74-.85-9.6-1.19-14.24-2.4-9-2.36-18-5.14-25.52-11A15.89,15.89,0,0,1,206.81,265.91Z"/><path class="cls-10" d="M352,353.73c8.42-.13,16.85-.24,25.27-.39l69.27-1.2c.62,0,1.25,0,1.83,0,.11.13.26.21.27.31.37,6,.36,6-5.61,6.08q-33.32.59-66.65,1.22c-7.48.14-15,.19-22.46.27-.49,0-1,0-1.48-.07.32-2,1.46-3.91-.44-5.61Z"/><path class="cls-11" d="M352,353.73v.61c-2.36-.41-3.92,1.05-5.72,2.19a36.49,36.49,0,0,1-5.64,2.69,27.74,27.74,0,0,1-3.48.93c-.14-.83-.32-1.94-.52-3a2.71,2.71,0,0,0-.34-1.16c-1.5-1.91-1.65-2-3.25.13-2.6,3.46-5.94,4.77-10.23,4.72-7-.08-14,.22-20.94.35-.61,0-1.22,0-2.12,0,.32-2.3.62-4.42.93-6.56Z"/><path class="cls-12" d="M363.68,330.87c-3-1.57-4.36-4.07-5.88-6.53-1-1.57-2.39-2.86-3.51-4.35-1.46-1.95-1.17-4.23-.45-6.23a36.79,36.79,0,0,1,3.23-5.8c.39-.66.83-1.28,1.31-2,4.12,1,8.43,2.13,11.95,5.06.48.4,1.08,1.14,1,1.64-.71,5.39-1.89,10.66-5,15.27A24.51,24.51,0,0,1,363.68,330.87ZM356,313.92c-1.54,4.78,2.15,8.29,5.89,7.88,2.47-.27,5-2.21,5-4.19a2.19,2.19,0,0,0-.72-1.7,2.16,2.16,0,0,0-1.76.25c-.85.47-1.57,1.17-2.38,1.71-1.1.75-2.24,1.1-3.22-.2S357,315.26,356,313.92Z"/><path class="cls-13" d="M370.74,361.89c2.41-.13,4.81-.32,7.22-.35q20.49-.24,41-.41c5.41,0,10.82,0,16.07,0-2.64.71-5.46,1.69-8.37,2.18s-6.12.58-9.18.85c-4,.36-8.09.94-12.14,1.06a63.92,63.92,0,0,1-12.84-.46c-3.79-.68-7.54-.25-11.27-.67-2.16-.25-4.25-1.09-6.39-1.53a38.75,38.75,0,0,0-4-.42A2,2,0,0,1,370.74,361.89Z"/><path class="cls-14" d="M328.4,344.33c0,.58-.09,1.16-.13,1.74-.2.13-.58.26-.59.39,0,1.9,0,3.8,0,6-3,0-6.11,0-9.26,0-.36,0-.69-.6-1.08-.67a4.92,4.92,0,0,0-1.95,0,22.47,22.47,0,0,0-2.7,1c-.47-3.1-2.61-4.43-4.6-5.8-.38-.26-1.37.18-2,.46-1.06.49-1.83.5-2.35-.74-.45-1.07-1-2.09-1.74-3.51,1.67.1,3,.24,4.43.28,6.54.18,13.09.32,19.63.52A18.58,18.58,0,0,1,328.4,344.33Z"/><path class="cls-8" d="M334.8,278.7a16.22,16.22,0,0,0-4.37,4.83c-.76,1.46-2.51,1-3.84.29-2.36-1.26-4.68-2.58-7-3.88-.7-.39-1.38-.8-2.07-1.2L331.62,273Z"/><path class="cls-15" d="M334.38,357.36a6.5,6.5,0,0,1-.29,5.5c-.73,1.27-1.31,2.64-2.12,3.86s-1.89,1-3,.46a11.18,11.18,0,0,1-1.91-1.16c-.29-.23-.61-.83-.51-1.1.48-1.19.87-2.61,2.38-2.87,2.28-.4,3.41-2.12,4.66-3.74C333.78,358.06,334,357.83,334.38,357.36Z"/><path class="cls-16" d="M340.08,361.93c2.55-1.27,5.11-2.53,7.63-3.82.85-.44,1.64-1,2.89-1.8-.27,4.45-3.26,6.73-5.43,9.85-.65-3.18-1-3.45-3.68-3.08C341,362.7,340.56,362.31,340.08,361.93Z"/><path class="cls-17" d="M319.73,249.73l2.75-1.23c2.31,1.82,2.28,4.51,2.86,7.14Z"/><path class="cls-18" d="M351.26,346.16a36.1,36.1,0,0,1-1.36-5.05c0-.41,1.22-1,1.88-1.49C353.26,342.07,352.25,344,351.26,346.16Z"/><path class="cls-19" d="M340.08,361.93c.48.38.95.77,1.41,1.15-1.31.18-2.61.33-3.92.54a9.76,9.76,0,0,0-1.39.46C336.6,361.36,338.74,362.46,340.08,361.93Z"/><path class="cls-20" d="M341.33,367.36l1-2.6c.56,1.08.89,1.73,1.35,2.6Z"/><path class="cls-21" d="M302.21,296.32a6.51,6.51,0,0,1-5.83-2.53c-.95-1.24-.81-2.91.66-3.37a11.16,11.16,0,0,1,4.2-.28,21.2,21.2,0,0,1,3.24,1c2.1.54,2.55,1.72,1.27,3.5A3.55,3.55,0,0,1,302.21,296.32Z"/><path class="cls-22" d="M402.56,393c-.29.86-.45,1.47-.69,2-3.36,7.71-6.74,15.4-10.08,23.11-.6,1.39-1.28,2.51-3,1.85-1.38-.51-1.74-1.89-1-3.63q5-11.56,10.07-23.12c.24-.57.52-1.31,1-1.54a3.47,3.47,0,0,1,2.38-.35C401.8,391.57,402.17,392.49,402.56,393Z"/><path class="cls-23" d="M376.64,409.26l5.69,4.32c1.17.88,1.87,2,.86,3.33s-2.3,1-3.47.2c-2.57-1.85-5.13-3.73-7.63-5.69-1.74-1.35-1.67-2.72.07-4.12,2.37-1.92,4.74-3.84,7.14-5.72,1.13-.9,2.36-1.57,3.63-.22,1,1,.67,2.5-.81,3.7C380.39,406.47,378.58,407.78,376.64,409.26Z"/><path class="cls-22" d="M413.85,409.26c-1.55-1.17-3-2.26-4.42-3.36-.64-.49-1.55-.91-1.8-1.57a4.06,4.06,0,0,1-.06-2.87,1.74,1.74,0,0,1,2.76-.4c2.88,2.18,5.73,4.41,8.51,6.71a1.92,1.92,0,0,1,0,3.23c-2.78,2.19-5.62,4.33-8.52,6.36a2,2,0,0,1-3.12-.5,2.19,2.19,0,0,1,.76-3.1Z"/><path class="cls-24" d="M356,313.92c1,1.35,1.9,2.56,2.8,3.75s2.12.95,3.22.21c.82-.55,1.54-1.25,2.39-1.71a2.16,2.16,0,0,1,1.76-.26,2.28,2.28,0,0,1,.72,1.71c-.05,2-2.54,3.92-5,4.19C358.18,322.21,354.5,318.7,356,313.92Z"/></svg>