<svg xmlns="http://www.w3.org/2000/svg" xmlns:xlink="http://www.w3.org/1999/xlink" width="500" zoomAndPan="magnify" viewBox="0 0 375 374.999991" height="500" preserveAspectRatio="xMidYMid meet" version="1.0"><defs><clipPath id="id1"><path d="M 36.660156 3.28125 L 337 3.28125 L 337 371 L 36.660156 371 Z M 36.660156 3.28125 " clip-rule="nonzero"/></clipPath></defs><rect x="-37.5" width="450" fill="rgb(100%, 100%, 100%)" y="-37.499999" height="449.999989" fill-opacity="1"/><rect x="-37.5" width="450" fill="rgb(100%, 100%, 100%)" y="-37.499999" height="449.999989" fill-opacity="1"/><rect x="-37.5" width="450" fill="rgb(100%, 100%, 100%)" y="-37.499999" height="449.999989" fill-opacity="1"/><rect x="-37.5" width="450" fill="rgb(100%, 100%, 100%)" y="-37.499999" height="449.999989" fill-opacity="1"/><g clip-path="url(#id1)"><path fill="rgb(98.81897%, 78.819275%, 3.138733%)" d="M 336.832031 50.539062 C 336.832031 57.082031 337.03125 63.257812 336.789062 69.40625 C 336.066406 87.863281 335.152344 106.273438 334.328125 124.707031 C 333.882812 135.484375 332.894531 146.210938 331.367188 156.886719 C 329.839844 167.5625 327.777344 178.136719 325.179688 188.605469 C 322.585938 199.078125 319.46875 209.390625 315.835938 219.542969 C 312.199219 229.699219 308.058594 239.644531 303.421875 249.382812 C 295.394531 266.28125 285.113281 281.964844 274.039062 297.082031 C 262.757812 312.484375 249.503906 325.984375 235.082031 338.410156 C 230.394531 342.449219 225.847656 346.625 220.996094 350.46875 C 211.125 358.414062 200.429688 365.015625 188.902344 370.277344 C 186.542969 371.335938 184.570312 370.546875 182.480469 369.480469 C 166.53125 361.367188 152.496094 350.710938 139.179688 338.824219 C 127 327.914062 115.082031 316.875 105.050781 304.003906 C 79.925781 271.734375 60.996094 236.269531 51.132812 196.375 C 47.691406 182.472656 44.492188 168.46875 42.132812 154.347656 C 40.453125 144.347656 40.203125 134.09375 39.613281 123.933594 C 38.65625 106.902344 37.875 89.863281 37.171875 72.820312 C 36.894531 66.109375 37.105469 59.398438 36.894531 52.683594 C 36.820312 50.210938 38.574219 50.3125 39.976562 50.066406 C 46.484375 48.921875 53.003906 47.84375 59.535156 46.835938 C 90.183594 42.15625 120.09375 34.890625 148.289062 21.667969 C 160.183594 16.085938 172.003906 10.265625 183.757812 4.5 C 184.261719 4.214844 184.792969 4 185.355469 3.851562 C 185.914062 3.699219 186.484375 3.625 187.066406 3.617188 C 187.644531 3.613281 188.214844 3.679688 188.777344 3.820312 C 189.339844 3.960938 189.878906 4.167969 190.386719 4.441406 C 205.597656 11.699219 220.707031 19.234375 236.1875 25.886719 C 257.921875 35.21875 280.679688 41.140625 304.074219 44.839844 C 314.953125 46.570312 325.808594 48.597656 336.832031 50.539062 Z M 330.113281 56.496094 C 328.847656 56.199219 328.015625 55.964844 327.175781 55.816406 C 317.160156 54.027344 307.164062 52.15625 297.125 50.503906 C 276.558594 47.148438 256.417969 42.019531 237.238281 33.847656 C 221.507812 27.136719 206.179688 19.585938 190.671875 12.261719 C 189.722656 11.726562 188.699219 11.457031 187.605469 11.457031 C 186.511719 11.457031 185.488281 11.726562 184.535156 12.261719 C 178.460938 15.441406 172.316406 18.511719 166.144531 21.492188 C 142.09375 33.238281 117.3125 43.011719 90.921875 48.078125 C 77.171875 50.714844 63.355469 52.9375 49.546875 55.246094 C 44.96875 56.007812 44.800781 55.875 44.976562 60.539062 C 45.816406 82.453125 46.597656 104.375 47.621094 126.285156 C 48.066406 135.664062 48.546875 145.101562 49.921875 154.375 C 51.535156 165.179688 53.953125 175.894531 56.371094 186.566406 C 65.605469 227.234375 83.683594 263.757812 109.1875 296.605469 C 119.363281 309.726562 131.5 320.933594 143.890625 331.960938 C 155.609375 342.566406 168.417969 351.640625 182.3125 359.1875 C 185.386719 360.863281 188.136719 361.066406 191.378906 359.402344 C 202.921875 353.632812 213.644531 346.605469 223.539062 338.320312 C 240.898438 323.46875 257.5625 308.023438 271.035156 289.335938 C 291.414062 261.070312 307.054688 230.605469 315.960938 196.792969 C 321.359375 176.339844 325.816406 155.683594 326.707031 134.472656 C 327.144531 124.128906 327.964844 113.800781 328.386719 103.429688 C 329.066406 87.847656 329.542969 72.277344 330.105469 56.46875 Z M 330.113281 56.496094 " fill-opacity="1" fill-rule="nonzero"/></g><path fill="rgb(0.389099%, 15.289307%, 29.798889%)" d="M 330.105469 56.46875 C 329.542969 72.277344 329.066406 87.847656 328.425781 103.402344 C 327.980469 113.757812 327.160156 124.085938 326.75 134.445312 C 325.859375 155.691406 321.402344 176.3125 316.003906 196.769531 C 307.097656 230.554688 291.457031 261.046875 271.074219 289.3125 C 257.601562 307.996094 240.941406 323.445312 223.578125 338.292969 C 213.683594 346.589844 202.960938 353.632812 191.414062 359.414062 C 188.171875 361.089844 185.417969 360.839844 182.347656 359.195312 C 168.453125 351.652344 155.644531 342.574219 143.925781 331.96875 C 131.535156 320.960938 119.394531 309.734375 109.222656 296.613281 C 83.71875 263.730469 65.644531 227.242188 56.402344 186.574219 C 53.984375 175.902344 51.566406 165.1875 49.957031 154.382812 C 48.578125 145.109375 48.101562 135.671875 47.65625 126.292969 C 46.632812 104.386719 45.828125 82.460938 45.011719 60.546875 C 44.835938 55.882812 45.011719 56.015625 49.578125 55.253906 C 63.386719 52.945312 77.203125 50.722656 90.957031 48.085938 C 117.347656 43.054688 142.160156 33.246094 166.179688 21.5 C 172.347656 18.488281 178.492188 15.417969 184.570312 12.269531 C 185.523438 11.734375 186.546875 11.464844 187.640625 11.464844 C 188.730469 11.464844 189.753906 11.734375 190.707031 12.269531 C 206.144531 19.492188 221.53125 27.128906 237.230469 33.824219 C 256.410156 41.996094 276.550781 47.089844 297.117188 50.480469 C 307.1875 52.15625 317.152344 54.003906 327.167969 55.789062 C 328.007812 55.941406 328.839844 56.175781 330.105469 56.46875 Z M 330.105469 56.46875 " fill-opacity="1" fill-rule="nonzero"/><path fill="rgb(3.529358%, 5.099487%, 2.349854%)" d="M 70.019531 229.632812 C 68.726562 227.117188 68.625 225.488281 67.332031 222.964844 C 67.332031 222.542969 67.5 221.042969 67.492188 220.621094 C 67.996094 221.535156 68.238281 222.921875 68.734375 223.84375 C 69.15625 224.632812 69.421875 225.832031 70.078125 226.242188 C 70.605469 226.578125 84.835938 221 85.640625 220.832031 C 88.277344 220.296875 90.957031 219.867188 93.539062 219.152344 C 96.898438 218.179688 100.257812 216.996094 103.613281 215.796875 C 106.796875 214.699219 109.976562 213.582031 113.101562 212.316406 C 116.035156 211.207031 118.878906 209.910156 121.636719 208.414062 C 125.203125 206.367188 128.605469 203.992188 132.011719 201.703125 C 135.640625 199.226562 139.199219 196.667969 142.78125 194.109375 C 145.988281 191.84375 149.179688 189.570312 152.394531 187.320312 C 153.789062 186.347656 155.089844 184.980469 156.652344 184.535156 C 157.710938 184.230469 158.792969 184.035156 159.894531 183.957031 C 160.996094 183.878906 162.09375 183.914062 163.1875 184.066406 C 164.28125 184.21875 165.34375 184.484375 166.382812 184.863281 C 167.421875 185.238281 168.40625 185.722656 169.34375 186.308594 C 171.507812 187.589844 173.589844 189.320312 175.949219 189.914062 C 179.847656 190.890625 183.808594 191.417969 187.828125 191.492188 C 190.546875 191.535156 193.300781 190.5 196.011719 189.8125 C 196.601562 189.671875 197.070312 189.082031 197.597656 188.699219 C 196.570312 188.507812 195.535156 188.492188 194.5 188.648438 C 191.253906 188.964844 187.929688 189.644531 185.089844 187.273438 C 184.042969 186.433594 182.789062 185.535156 182.230469 184.378906 C 181.667969 183.21875 181.84375 181.699219 181.675781 180.265625 C 175.746094 180.265625 169.570312 180.265625 163.390625 180.265625 C 162.074219 180.265625 161.535156 179.769531 161.621094 178.527344 C 161.808594 177.453125 161.898438 176.367188 161.890625 175.273438 C 161.703125 173.746094 162.585938 172.976562 163.566406 172.21875 C 163.988281 171.953125 164.433594 171.722656 164.894531 171.53125 C 164.15625 170.617188 163.5 169.769531 162.796875 168.957031 C 162.089844 168.140625 161.351562 167.328125 160.585938 166.546875 C 159.167969 165.105469 158.910156 162.3125 160.445312 161.230469 C 161.597656 160.398438 162.886719 159.949219 164.304688 159.878906 C 169.265625 159.820312 174.238281 160.019531 179.207031 160.136719 C 179.515625 160.136719 179.820312 160.265625 180.128906 160.265625 C 184.261719 160.265625 188.414062 160.558594 192.503906 160.164062 C 195.761719 159.851562 198.941406 158.726562 202.15625 157.941406 C 205.371094 157.152344 208.359375 156.4375 211.433594 155.597656 C 212.378906 155.28125 213.292969 154.890625 214.179688 154.433594 C 213.144531 153.074219 212.15625 151.855469 211.273438 150.574219 C 210.484375 149.421875 209.871094 148.140625 209.050781 147.015625 C 206.691406 143.777344 206.070312 140.394531 208.066406 136.78125 C 208.90625 135.253906 209.90625 133.816406 210.84375 132.316406 C 208.984375 131.476562 207.078125 130.765625 205.121094 130.183594 C 201.324219 129.347656 199.578125 126.324219 198.582031 123.28125 C 197.042969 118.597656 195.5 113.984375 192.824219 109.8125 C 191.898438 108.136719 190.984375 106.5 190.152344 105.015625 L 178.308594 109.839844 C 178.152344 109.816406 177.996094 109.816406 177.839844 109.839844 C 172.542969 111.339844 167.226562 112.785156 161.710938 113.304688 L 145.25 114.847656 C 138.609375 114.636719 131.980469 114.527344 125.363281 114.175781 C 121.949219 113.992188 118.546875 113.429688 115.148438 112.910156 C 113.308594 112.632812 111.488281 112.164062 109.675781 111.703125 C 106.519531 110.863281 103.371094 110.023438 100.246094 109.183594 C 98.332031 108.628906 96.46875 107.917969 94.613281 107.28125 C 93.085938 111.332031 91.652344 115.191406 90.191406 119.027344 C 90.066406 119.28125 89.898438 119.503906 89.695312 119.703125 C 89.492188 119.898438 89.257812 120.054688 89 120.171875 C 88.742188 120.289062 88.472656 120.355469 88.1875 120.378906 C 87.90625 120.402344 87.628906 120.375 87.355469 120.300781 C 87.070312 120.199219 86.816406 120.046875 86.59375 119.839844 C 86.375 119.632812 86.207031 119.386719 86.089844 119.109375 C 85.972656 118.832031 85.914062 118.539062 85.921875 118.238281 C 85.925781 117.9375 85.992188 117.648438 86.121094 117.375 C 87.691406 113.371094 89.234375 109.359375 90.761719 105.417969 C 88.882812 104.089844 86.875 103.007812 85.296875 101.464844 C 83.886719 100.089844 82.777344 100.5 81.425781 101.171875 C 78.910156 102.414062 76.390625 103.546875 73.9375 104.863281 C 72.992188 105.507812 72.128906 106.246094 71.34375 107.078125 C 71.34375 107.027344 48.453125 112.875 48.453125 112.875 C 48.261719 112.449219 47.019531 111.859375 46.941406 111.566406 C 47.378906 110.191406 62.003906 105.578125 69.070312 102.691406 C 71.21875 101.808594 72.671875 101.089844 72.804688 100.675781 L 73.855469 100.039062 C 77.0625 98.421875 80.253906 96.777344 83.46875 95.191406 C 85.144531 94.351562 86.824219 93.636719 88.503906 92.832031 C 91.074219 91.605469 93.640625 90.316406 96.175781 89.054688 C 96.613281 88.804688 96.921875 88.441406 97.101562 87.964844 C 97.394531 87.125 97.484375 86.195312 97.753906 85.332031 C 98.71875 82.285156 100.375 79.84375 103.445312 78.484375 C 104.65625 77.925781 105.910156 77.507812 107.214844 77.234375 C 108.519531 76.960938 109.835938 76.835938 111.167969 76.859375 C 112.5 76.882812 113.8125 77.054688 115.105469 77.375 C 116.398438 77.699219 117.636719 78.160156 118.824219 78.761719 C 119.628906 79.226562 120.492188 79.480469 121.417969 79.523438 C 125.414062 79.230469 129.394531 78.46875 133.382812 78.425781 C 139.332031 78.367188 145.292969 78.710938 151.234375 79.003906 C 155.289062 79.207031 159.335938 79.617188 163.390625 79.960938 C 164.738281 80.042969 166.074219 80.207031 167.402344 80.449219 C 169.335938 80.835938 171.230469 81.453125 173.171875 81.800781 C 176.234375 82.328125 178.886719 80.84375 181.617188 79.820312 C 183.875 78.980469 185.234375 79.617188 186.484375 81.65625 C 188.203125 84.351562 189.210938 87.292969 189.507812 90.472656 C 189.648438 92.019531 190.289062 93.65625 189.933594 95.0625 C 189.582031 96.472656 190.179688 97.320312 190.730469 98.320312 C 190.890625 98.605469 191.320312 98.738281 191.488281 99.015625 C 194.007812 103.277344 196.355469 107.625 199.042969 111.792969 C 200.914062 114.714844 201.476562 118.027344 202.542969 121.207031 C 203.265625 123.378906 204.457031 125.226562 206.742188 126.046875 C 207.796875 126.425781 208.898438 126.726562 209.945312 127.132812 C 214.539062 128.867188 219.507812 129.554688 223.746094 132.222656 C 225.425781 133.304688 227.375 134.414062 227.617188 136.601562 C 228.039062 139.976562 227.578125 143.222656 226.242188 146.34375 C 225.707031 147.507812 225.25 148.703125 224.871094 149.925781 C 224.472656 151.351562 223.832031 152.660156 222.945312 153.851562 C 222.0625 155.039062 220.996094 156.03125 219.742188 156.824219 C 218.066406 157.898438 216.058594 158.402344 214.21875 159.207031 C 213.765625 159.398438 213.179688 159.667969 213.003906 160.046875 C 212.265625 161.671875 211.617188 163.34375 211.011719 165.03125 C 210.585938 166.222656 210.046875 167.09375 208.417969 166.40625 C 208.390625 167.132812 208.292969 167.847656 208.117188 168.554688 C 207.929688 169.078125 207.59375 169.472656 207.109375 169.746094 C 206.867188 169.84375 206.128906 169.390625 205.984375 169.039062 C 205.144531 167.007812 204.390625 164.929688 203.644531 162.964844 L 187.449219 164.851562 C 186.796875 164.726562 186.140625 164.636719 185.476562 164.585938 C 179.980469 164.425781 174.480469 164.300781 168.992188 164.148438 C 167.839844 164.148438 166.691406 164.003906 165.28125 163.914062 C 165.875 165.105469 166.355469 165.960938 166.742188 166.867188 C 167.175781 167.90625 167.824219 167.890625 168.714844 167.488281 C 169.242188 167.246094 170.074219 166.875 170.390625 167.09375 C 172.070312 168.242188 173.851562 169.367188 174.246094 171.960938 C 174.988281 171.636719 175.746094 171.355469 176.519531 171.121094 C 177.078125 171 177.640625 171 178.199219 171.121094 C 178.527344 171.179688 178.796875 171.664062 179.105469 171.675781 C 181.742188 171.726562 184.386719 171.675781 186.871094 171.675781 C 186.871094 169.796875 186.871094 168.199219 186.871094 166.640625 C 186.871094 166.53125 187.191406 166.421875 187.367188 166.3125 C 189.664062 166.625 189.882812 167.050781 189.4375 169.929688 C 190.101562 170.164062 190.765625 170.367188 191.410156 170.632812 C 192.058594 170.902344 192.488281 171.398438 193.023438 171.390625 C 196.382812 171.390625 199.738281 171.179688 203.054688 171.128906 C 211.382812 171.003906 219.703125 170.9375 228.027344 170.808594 C 233.066406 170.734375 238.101562 170.574219 243.097656 170.5 C 251.257812 170.375 259.433594 170.289062 267.59375 170.179688 C 274.398438 170.089844 281.199219 169.9375 288.007812 169.855469 C 290.265625 169.855469 291.140625 171.3125 290.222656 173.402344 C 290.003906 173.941406 289.925781 174.5 289.996094 175.082031 C 290.046875 175.390625 290.046875 175.703125 289.992188 176.011719 C 289.941406 176.324219 289.835938 176.617188 289.683594 176.894531 C 289.535156 177.171875 289.339844 177.414062 289.105469 177.625 C 288.871094 177.835938 288.609375 178.003906 288.316406 178.125 C 287.878906 178.375 287.625 178.75 287.5625 179.25 C 287.730469 180.929688 288.03125 182.53125 288.316406 184.175781 C 288.980469 187.890625 289.425781 191.585938 287.789062 195.191406 C 287.132812 196.636719 286.589844 198.128906 285.917969 199.5625 C 285.28125 201.070312 284.539062 202.527344 283.691406 203.925781 C 281.914062 206.621094 279.898438 209.179688 278.136719 211.886719 C 277.398438 212.929688 276.976562 214.082031 276.867188 215.351562 C 276.867188 217.960938 276.648438 220.546875 277.515625 223.214844 C 278.632812 226.40625 280.007812 229.484375 281.644531 232.445312 C 284.074219 237.105469 286.953125 241.46875 290.289062 245.53125 C 291.710938 247.269531 291.230469 249.175781 288.921875 249.652344 C 284.625 250.542969 280.335938 251.625 275.988281 252.167969 C 270.949219 252.773438 265.804688 252.941406 260.699219 253.144531 C 258.367188 253.242188 256.007812 252.839844 253.664062 252.882812 C 244.550781 253.042969 235.40625 252.304688 226.324219 253.789062 C 223.992188 254.175781 221.625 254.359375 219.273438 254.695312 C 218.515625 254.828125 217.777344 255.03125 217.058594 255.300781 C 214.539062 256.136719 212.632812 255.011719 212.625 252.523438 C 212.625 248.277344 211.046875 244.535156 209.140625 240.875 C 207.332031 237.125 206.304688 233.171875 206.058594 229.011719 C 205.984375 226.992188 206.183594 224.996094 206.65625 223.03125 C 206.960938 220.933594 207.519531 218.910156 208.335938 216.957031 C 209.820312 213.835938 211.691406 210.890625 213.414062 207.886719 C 214.355469 206.265625 215.648438 204.796875 216.320312 203.085938 C 217.375 200.648438 218.089844 198.109375 218.460938 195.476562 C 218.675781 193.128906 218.410156 190.835938 217.671875 188.597656 C 216.65625 185.507812 215.058594 182.625 213.691406 179.613281 C 211.484375 179.613281 209.394531 179.570312 207.304688 179.652344 C 206.808594 179.742188 206.410156 179.984375 206.101562 180.382812 C 204.785156 181.925781 203.523438 183.511719 202.148438 185.207031 C 202.296875 185.53125 202.417969 185.863281 202.507812 186.207031 C 202.59375 186.554688 202.652344 186.902344 202.675781 187.257812 C 202.699219 187.613281 202.691406 187.96875 202.652344 188.320312 C 202.609375 188.675781 202.539062 189.023438 202.433594 189.363281 C 202.328125 189.703125 202.195312 190.03125 202.03125 190.34375 C 201.863281 190.660156 201.671875 190.960938 201.453125 191.238281 C 201.234375 191.519531 200.992188 191.777344 200.722656 192.011719 C 200.457031 192.25 200.171875 192.457031 199.867188 192.640625 C 197.863281 193.824219 195.734375 194.695312 193.472656 195.253906 C 191.214844 195.8125 188.925781 196.035156 186.601562 195.921875 C 184.9375 195.808594 183.285156 195.609375 181.640625 195.324219 C 179.335938 195.101562 177.0625 194.703125 174.816406 194.132812 C 172.859375 193.53125 171.097656 192.304688 169.226562 191.398438 C 167.351562 190.492188 165.347656 189.453125 163.347656 188.664062 C 160.890625 187.699219 158.648438 188.210938 156.472656 189.832031 C 152.371094 192.882812 148.136719 195.761719 143.941406 198.691406 C 139.339844 201.90625 134.730469 205.101562 130.117188 208.273438 C 127.664062 209.949219 125.332031 211.945312 122.644531 213.171875 C 117.933594 215.328125 113.023438 217.097656 108.136719 218.851562 C 105.199219 219.902344 102.160156 220.628906 99.15625 221.460938 C 96.503906 222.199219 93.84375 222.90625 91.183594 223.585938 C 89.316406 224.070312 87.4375 224.480469 85.566406 224.917969 C 85.121094 224.945312 70.429688 229.648438 70.019531 229.632812 Z M 197.253906 179.6875 C 196.128906 180.132812 194.332031 179.21875 193.980469 181.492188 C 194.363281 181.332031 194.753906 181.203125 195.15625 181.105469 C 196.246094 180.929688 197.347656 180.804688 198.445312 180.652344 C 200.679688 180.339844 200.964844 180.566406 201.535156 183.234375 C 203.347656 180.625 205.867188 178.707031 206.085938 174.980469 C 205.035156 175.632812 204.40625 176.113281 203.667969 176.480469 C 201.542969 177.5625 199.394531 178.621094 197.253906 179.6875 Z M 207.261719 173.320312 C 208.855469 174.746094 207.890625 176.382812 207.628906 178.027344 C 208.058594 178.027344 208.46875 178.085938 208.871094 178.085938 C 215.152344 178.015625 221.464844 177.976562 227.726562 177.859375 C 246.378906 177.535156 265.027344 177.191406 283.675781 176.835938 C 288.710938 176.742188 288.710938 176.835938 288.386719 171.734375 C 288.386719 171.65625 288.25 171.582031 288.160156 171.472656 L 286.589844 171.472656 L 228.441406 172.480469 C 221.371094 172.605469 214.296875 172.699219 207.226562 172.808594 L 164.15625 173.519531 C 163.894531 175.324219 163.644531 177.101562 163.375 179.023438 L 165.152344 179.023438 C 171.03125 178.914062 176.90625 178.671875 182.730469 178.730469 C 186.332031 178.730469 189.136719 177.671875 191.320312 174.769531 C 192.664062 172.992188 192.78125 173.09375 194.046875 174.660156 C 194.214844 174.964844 194.308594 175.289062 194.332031 175.632812 C 194.5 176.566406 194.652344 177.488281 194.769531 178.152344 C 195.761719 177.953125 196.734375 177.6875 197.691406 177.363281 C 199.332031 176.746094 200.910156 175.992188 202.425781 175.105469 C 203.902344 174.199219 205.246094 172.976562 207.261719 173.320312 Z M 216.328125 180.609375 C 216.484375 181.054688 216.675781 181.488281 216.90625 181.902344 C 220.265625 186.886719 220.769531 192.441406 219.851562 198.152344 C 219.472656 200.480469 218.738281 202.691406 217.652344 204.78125 C 215.925781 208.136719 213.734375 211.207031 211.835938 214.457031 C 208.746094 219.714844 206.96875 225.363281 208.269531 231.460938 C 208.878906 234.375 209.785156 237.195312 210.980469 239.917969 C 212.660156 243.828125 214.226562 247.722656 214.464844 252.027344 C 214.53125 253.429688 215.304688 253.8125 216.753906 253.429688 C 218.480469 252.960938 220.222656 252.585938 221.984375 252.304688 C 223.578125 252.058594 225.207031 252.050781 226.828125 251.910156 C 231.027344 251.546875 235.28125 251.070312 239.511719 250.820312 C 241.746094 250.667969 243.996094 250.761719 246.226562 250.820312 C 250.003906 250.953125 253.785156 250.640625 257.578125 251.238281 C 260.449219 251.691406 263.503906 250.9375 266.484375 250.785156 C 269.714844 250.617188 272.988281 250.726562 276.195312 250.324219 C 279.964844 249.84375 283.675781 248.957031 287.410156 248.210938 C 287.875 248.125 288.605469 247.875 288.644531 247.613281 C 288.65625 247.054688 288.492188 246.550781 288.160156 246.101562 C 286.992188 244.425781 285.683594 242.882812 284.558594 241.203125 C 283.105469 239.046875 281.746094 236.839844 280.417969 234.609375 C 279.878906 233.621094 279.402344 232.605469 278.984375 231.5625 C 277.910156 229.121094 276.414062 226.753906 275.894531 224.1875 C 275.246094 221.058594 275.375 217.769531 275.296875 214.539062 C 275.238281 213.464844 275.460938 212.453125 275.96875 211.503906 C 277.695312 208.703125 279.566406 206.003906 281.59375 203.414062 C 283.996094 200.425781 285.152344 196.871094 286.464844 193.40625 C 287.773438 189.941406 286.464844 186.171875 286.421875 182.546875 C 286.378906 181.71875 286.175781 180.929688 285.816406 180.183594 C 285.378906 179.207031 284.691406 178.351562 283.414062 178.746094 C 281.585938 179.308594 279.773438 179.957031 277.941406 180.550781 C 276.042969 181.277344 274.105469 181.882812 272.132812 182.371094 C 269.785156 182.773438 267.417969 183.054688 265.039062 183.210938 C 260.785156 183.597656 256.535156 184.050781 252.265625 184.242188 C 248.820312 184.386719 245.371094 184.117188 241.921875 184.03125 L 241.292969 183.984375 C 235.257812 183.027344 229.085938 183.203125 223.09375 181.84375 C 220.925781 181.363281 218.746094 181.046875 216.292969 180.585938 Z M 181.976562 93.738281 C 181.28125 93.007812 180.9375 92.628906 180.574219 92.261719 C 177.585938 89.191406 174.503906 86.597656 169.9375 85.757812 C 162.382812 84.375 154.894531 83.242188 147.230469 83.125 L 145.972656 83.125 C 139.082031 83.125 132.179688 83.125 125.28125 83.191406 C 124.960938 83.191406 124.632812 83.503906 124.230469 83.710938 C 126.53125 86.230469 129.335938 86.957031 132.339844 87.269531 C 132.851562 87.320312 133.558594 87.269531 133.824219 87.621094 C 134.484375 88.230469 134.882812 88.976562 135.027344 89.863281 C 135.019531 90.113281 134.964844 90.351562 134.863281 90.582031 C 134.761719 90.8125 134.617188 91.011719 134.433594 91.183594 C 134.25 91.351562 134.039062 91.480469 133.800781 91.566406 C 133.566406 91.652344 133.320312 91.6875 133.070312 91.675781 C 130.78125 91.625 128.570312 91.183594 126.4375 90.355469 C 123.441406 89.382812 121.542969 87.050781 119.589844 84.886719 C 118.585938 83.765625 117.398438 82.894531 116.023438 82.273438 C 114.652344 81.652344 113.210938 81.339844 111.707031 81.328125 C 110.195312 81.261719 108.675781 81.800781 107.148438 81.859375 C 104.285156 81.96875 102.867188 83.929688 101.953125 86.128906 C 101.09375 88.421875 100.460938 90.777344 100.054688 93.191406 C 99.976562 93.894531 100.203125 94.480469 100.734375 94.945312 C 101.988281 95.6875 103.316406 96.246094 104.722656 96.625 C 109.859375 97.878906 115.015625 99.058594 120.183594 100.164062 C 126.238281 101.464844 132.414062 101.53125 138.570312 101.683594 C 142.640625 101.777344 146.726562 101.683594 150.792969 101.355469 C 154.535156 101.113281 158.253906 100.636719 161.9375 99.929688 C 166.304688 99.089844 170.628906 97.890625 174.910156 96.640625 C 177.3125 95.792969 179.667969 94.824219 181.976562 93.738281 Z M 85.382812 99.125 C 85.792969 99.628906 86.234375 100.101562 86.714844 100.542969 C 93.054688 105.476562 100.558594 107.800781 108.148438 109.773438 C 112.042969 110.785156 116.121094 111.082031 120.101562 111.792969 C 126.882812 112.902344 133.707031 113.398438 140.574219 113.277344 C 144.597656 113.277344 148.632812 113.035156 152.644531 112.648438 C 157.203125 112.214844 161.769531 111.660156 166.277344 110.863281 C 169.78125 110.242188 173.195312 109.183594 176.664062 108.34375 C 181.066406 107.179688 185.261719 105.5 189.253906 103.3125 C 187.382812 100.792969 185.5625 98.277344 183.757812 95.84375 C 183.292969 95.214844 182.957031 95.164062 182.078125 95.507812 C 178.074219 97.25 173.984375 98.757812 169.8125 100.039062 C 166.085938 101.078125 162.15625 101.375 158.347656 102.121094 C 152.308594 103.152344 146.230469 103.621094 140.105469 103.53125 C 136.277344 103.542969 132.464844 103.339844 128.664062 102.910156 C 123.910156 102.40625 119.167969 101.707031 114.453125 100.929688 C 112.113281 100.496094 109.816406 99.90625 107.558594 99.148438 C 104.609375 98.257812 101.722656 97.199219 98.894531 95.96875 C 96.671875 94.945312 94.699219 93.90625 92.398438 95.691406 C 91.796875 96.089844 91.15625 96.417969 90.484375 96.675781 C 88.898438 97.472656 87.21875 98.242188 85.382812 99.125 Z M 217.066406 153.660156 C 217.902344 152.886719 218.660156 152.050781 219.347656 151.144531 C 221.917969 147.277344 222.910156 142.855469 223.546875 138.339844 C 223.597656 137.914062 223.101562 137.292969 222.707031 136.957031 C 219.753906 134.496094 216.132812 133.601562 212.675781 132.710938 C 212.273438 133.324219 211.902344 133.84375 211.574219 134.386719 C 210.527344 135.929688 209.621094 137.550781 208.863281 139.253906 C 208.261719 140.933594 208.023438 142.847656 209.242188 144.480469 C 210.183594 145.730469 211.375 146.8125 212.1875 148.132812 C 213.398438 150.210938 214.554688 152.308594 217.066406 153.628906 Z M 222.992188 179.671875 C 222.992188 179.738281 222.992188 179.804688 222.992188 179.878906 C 224.117188 179.9375 225.238281 180.054688 226.351562 180.230469 C 228.15625 180.601562 229.910156 181.304688 231.722656 181.507812 C 234.855469 181.859375 237.992188 181.507812 241.175781 182.070312 C 244.757812 182.5625 248.351562 182.695312 251.960938 182.464844 C 255.363281 182.363281 258.753906 181.875 262.144531 181.566406 C 264.714844 181.339844 267.316406 181.296875 269.851562 180.863281 C 272.386719 180.425781 274.667969 179.628906 276.875 179.03125 C 272.46875 179.03125 267.9375 179.03125 263.394531 179.03125 C 251.929688 179.128906 240.457031 179.238281 228.976562 179.367188 C 227.039062 179.386719 225.015625 179.542969 222.992188 179.652344 Z M 192.46875 175.871094 C 192.140625 176.253906 191.972656 176.449219 191.816406 176.648438 C 190.765625 178.015625 189.824219 179.460938 187.910156 179.796875 C 186.636719 180.015625 186.316406 181.207031 185.914062 182.203125 C 185.820312 182.429688 186.097656 182.925781 186.34375 183.125 C 186.84375 183.503906 187.378906 183.824219 187.945312 184.089844 C 188.867188 184.570312 189.816406 184.671875 190.464844 183.714844 C 191.109375 182.757812 191.628906 181.542969 192.234375 180.46875 C 192.617188 179.753906 192.828125 178.996094 192.871094 178.1875 C 192.910156 177.378906 192.777344 176.601562 192.46875 175.851562 Z M 180.171875 85.550781 L 184.882812 90.507812 C 184.394531 88.300781 184.429688 86.042969 182.488281 84.515625 Z M 206.640625 166.457031 C 207.480469 164.625 208.320312 163.023438 207.078125 160.96875 C 206.523438 161.386719 205.457031 161.875 205.5 162.21875 C 205.777344 163.660156 206.15625 165.070312 206.640625 166.457031 Z M 198.304688 184.242188 L 200.308594 184.242188 L 199.175781 182.0625 Z M 198.304688 184.242188 " fill-opacity="1" fill-rule="nonzero"/><path fill="rgb(32.548523%, 22.749329%, 15.689087%)" d="M 46.925781 111.617188 C 47.019531 111.960938 47.589844 111.945312 47.941406 112.1875 C 48.199219 112.375 48.363281 112.621094 48.4375 112.925781 C 48.898438 121.164062 49.277344 127.9375 49.535156 136.132812 C 50 141.664062 50.460938 146.3125 50.972656 151.789062 C 51.316406 154.464844 51.835938 157.105469 52.535156 159.710938 C 53.046875 163.207031 53.960938 166.890625 54.566406 170.390625 C 56.035156 178.402344 57.140625 184.132812 59.183594 191.417969 C 60.859375 197.289062 63.789062 210.027344 65.671875 215.882812 C 66.191406 217.34375 65.796875 216.503906 66.367188 217.945312 C 67.289062 220.261719 66.511719 218.324219 67.457031 220.621094 C 67.457031 221.042969 67.300781 222.542969 67.300781 222.964844 C 63.765625 214.75 61.203125 205.125 58.738281 196.308594 C 56.671875 188.3125 54.75 179.828125 52.988281 171.398438 C 51.308594 163.160156 49.957031 155.105469 49.03125 146.722656 C 48.027344 134.296875 47.539062 124.582031 46.925781 111.617188 Z M 46.925781 111.617188 " fill-opacity="1" fill-rule="nonzero"/><path fill="rgb(49.798584%, 30.979919%, 16.468811%)" d="M 63.453125 207.859375 C 61.582031 201.988281 61.84375 200.964844 60.1875 195.039062 C 58.148438 187.765625 56.832031 181.472656 55.269531 174.007812 C 54.722656 170.777344 53.589844 165.171875 52.910156 161.800781 C 52.777344 159.140625 51.753906 156.453125 51.230469 153.558594 C 50.644531 148.257812 49.59375 139.941406 49.476562 134.203125 C 48.957031 126.292969 48.714844 121.710938 48.4375 112.925781 C 48.546875 112.53125 71.296875 107.539062 71.3125 107.128906 C 72.09375 106.296875 72.960938 105.558594 73.90625 104.914062 C 76.347656 103.589844 78.941406 102.464844 81.394531 101.222656 C 82.753906 100.550781 83.863281 100.140625 85.273438 101.515625 C 86.839844 103.050781 88.855469 104.140625 90.738281 105.46875 C 89.210938 109.402344 87.664062 113.421875 86.09375 117.421875 C 85.964844 117.699219 85.894531 117.984375 85.890625 118.289062 C 85.882812 118.59375 85.9375 118.882812 86.054688 119.164062 C 86.175781 119.441406 86.34375 119.6875 86.566406 119.894531 C 86.789062 120.101562 87.042969 120.253906 87.328125 120.351562 C 87.601562 120.425781 87.878906 120.453125 88.164062 120.429688 C 88.445312 120.410156 88.71875 120.339844 88.976562 120.222656 C 89.234375 120.109375 89.46875 119.949219 89.671875 119.753906 C 89.875 119.558594 90.039062 119.332031 90.164062 119.078125 C 91.617188 115.21875 93.0625 111.359375 94.589844 107.332031 C 96.445312 107.96875 98.308594 108.679688 100.214844 109.234375 C 103.335938 110.148438 106.492188 110.972656 109.640625 111.75 C 111.449219 112.246094 113.277344 112.648438 115.121094 112.960938 C 118.480469 113.472656 121.914062 114.042969 125.332031 114.226562 C 131.953125 114.585938 138.59375 114.6875 145.21875 114.898438 C 144.9375 115.015625 144.671875 115.160156 144.417969 115.335938 C 140.933594 118.171875 138.238281 121.628906 136.34375 125.703125 C 135.796875 126.90625 134.910156 128.355469 135.824219 130.066406 C 137.722656 133.582031 140.777344 135.285156 144.4375 136.285156 C 146.167969 136.703125 147.871094 137.214844 149.546875 137.820312 C 149.765625 137.894531 149.972656 137.992188 150.164062 138.113281 C 150.359375 138.238281 150.535156 138.382812 150.691406 138.550781 C 150.847656 138.71875 150.984375 138.902344 151.097656 139.101562 C 151.210938 139.300781 151.296875 139.511719 151.359375 139.730469 C 151.417969 139.953125 151.453125 140.179688 151.457031 140.40625 C 151.464844 140.636719 151.441406 140.863281 151.390625 141.089844 C 151.339844 141.3125 151.265625 141.527344 151.160156 141.730469 C 151.058594 141.9375 150.933594 142.125 150.78125 142.300781 C 149.699219 143.667969 148.4375 144.84375 146.996094 145.824219 C 144.628906 147.316406 142.070312 148.492188 139.585938 149.785156 C 135.167969 152.101562 130.753906 154.425781 126.320312 156.707031 C 123.039062 158.382812 122.476562 160.371094 125.019531 163.007812 C 126.777344 164.703125 128.722656 166.144531 130.855469 167.335938 C 131.121094 167.480469 131.375 167.648438 131.609375 167.839844 C 131.84375 168.035156 132.058594 168.246094 132.25 168.484375 C 132.445312 168.71875 132.609375 168.972656 132.753906 169.242188 C 132.894531 169.511719 133.007812 169.792969 133.09375 170.082031 C 133.179688 170.375 133.234375 170.671875 133.261719 170.976562 C 133.289062 171.277344 133.285156 171.582031 133.25 171.882812 C 133.214844 172.1875 133.152344 172.484375 133.058594 172.773438 C 132.964844 173.0625 132.839844 173.339844 132.691406 173.605469 C 131.355469 175.957031 129.636719 177.992188 127.539062 179.703125 C 125.019531 181.808594 122.417969 183.898438 119.738281 185.8125 C 116.867188 188.023438 113.859375 190.035156 110.722656 191.851562 C 106.527344 194.128906 102.136719 195.9375 97.554688 197.28125 C 91.339844 199.066406 85.222656 201.214844 79.085938 203.261719 C 77.984375 203.605469 64.453125 207.339844 63.453125 207.859375 Z M 63.453125 207.859375 " fill-opacity="1" fill-rule="nonzero"/><path fill="rgb(25.878906%, 21.179199%, 18.818665%)" d="M 63.453125 207.859375 C 64.453125 207.339844 77.984375 203.597656 79.042969 203.253906 C 85.179688 201.199219 91.289062 199.058594 97.511719 197.273438 C 102.109375 195.933594 106.515625 194.121094 110.722656 191.835938 C 113.886719 190.027344 116.917969 188.015625 119.816406 185.804688 C 122.492188 183.882812 125.070312 181.808594 127.613281 179.703125 C 129.707031 177.988281 131.425781 175.953125 132.769531 173.605469 C 132.917969 173.339844 133.039062 173.0625 133.132812 172.773438 C 133.226562 172.484375 133.289062 172.1875 133.324219 171.882812 C 133.359375 171.582031 133.363281 171.277344 133.335938 170.976562 C 133.3125 170.671875 133.253906 170.375 133.167969 170.082031 C 133.082031 169.792969 132.96875 169.511719 132.828125 169.242188 C 132.6875 168.972656 132.519531 168.71875 132.328125 168.484375 C 132.136719 168.246094 131.921875 168.035156 131.6875 167.839844 C 131.449219 167.648438 131.199219 167.480469 130.929688 167.335938 C 128.800781 166.140625 126.859375 164.695312 125.09375 163.007812 C 122.578125 160.382812 123.113281 158.402344 126.398438 156.707031 C 130.828125 154.425781 135.246094 152.089844 139.660156 149.785156 C 142.179688 148.484375 144.695312 147.265625 147.074219 145.824219 C 148.511719 144.839844 149.773438 143.664062 150.859375 142.300781 C 151.007812 142.125 151.132812 141.9375 151.238281 141.730469 C 151.339844 141.527344 151.417969 141.3125 151.464844 141.089844 C 151.515625 140.863281 151.539062 140.636719 151.53125 140.40625 C 151.527344 140.179688 151.496094 139.953125 151.433594 139.730469 C 151.371094 139.511719 151.285156 139.300781 151.171875 139.101562 C 151.058594 138.902344 150.925781 138.71875 150.765625 138.550781 C 150.609375 138.382812 150.433594 138.238281 150.242188 138.117188 C 150.046875 137.992188 149.84375 137.894531 149.625 137.820312 C 147.945312 137.214844 146.242188 136.703125 144.511719 136.277344 C 140.851562 135.292969 137.796875 133.574219 135.898438 130.066406 C 134.984375 128.390625 135.898438 126.90625 136.417969 125.703125 C 138.3125 121.625 141.003906 118.164062 144.496094 115.324219 C 144.746094 115.15625 145.011719 115.011719 145.292969 114.898438 L 161.761719 113.355469 C 167.277344 112.835938 172.582031 111.390625 177.886719 109.882812 C 178.046875 109.859375 178.203125 109.859375 178.359375 109.882812 C 178.929688 110.214844 179.5 110.558594 180.089844 110.878906 C 182.050781 111.976562 184 113.085938 185.964844 114.132812 C 187.082031 114.730469 188.550781 115.117188 189.1875 113.898438 C 190.136719 112.300781 191.359375 110.949219 192.855469 109.847656 C 195.535156 114.042969 197.054688 118.632812 198.613281 123.3125 C 199.621094 126.367188 201.359375 129.355469 205.144531 130.21875 C 207.105469 130.800781 209.015625 131.511719 210.878906 132.351562 C 209.9375 133.851562 208.949219 135.285156 208.101562 136.8125 C 206.09375 140.429688 206.722656 143.8125 209.082031 147.050781 C 209.921875 148.171875 210.507812 149.457031 211.296875 150.605469 C 212.195312 151.890625 213.179688 153.125 214.203125 154.464844 C 213.320312 154.925781 212.410156 155.316406 211.464844 155.632812 C 208.386719 156.472656 205.28125 157.21875 202.183594 157.972656 C 199.085938 158.726562 195.792969 159.886719 192.527344 160.195312 C 188.441406 160.589844 184.285156 160.296875 180.164062 160.296875 C 179.851562 160.296875 179.550781 160.179688 179.230469 160.171875 C 174.269531 160.054688 169.300781 159.851562 164.339844 159.902344 C 162.921875 159.980469 161.632812 160.433594 160.476562 161.261719 C 158.96875 162.335938 159.195312 165.136719 160.613281 166.582031 C 161.375 167.363281 162.117188 168.160156 162.828125 168.988281 C 163.542969 169.820312 164.179688 170.667969 164.925781 171.566406 C 164.464844 171.753906 164.023438 171.984375 163.601562 172.253906 C 162.601562 173.007812 161.722656 173.78125 161.921875 175.308594 C 161.933594 176.398438 161.847656 177.484375 161.660156 178.5625 C 161.578125 179.796875 162.117188 180.316406 163.425781 180.300781 C 169.601562 180.25 175.789062 180.300781 181.714844 180.300781 C 181.867188 181.742188 181.714844 183.261719 182.261719 184.417969 C 182.808594 185.578125 184.082031 186.433594 185.125 187.304688 C 187.960938 189.6875 191.277344 188.984375 194.535156 188.691406 C 195.574219 188.535156 196.609375 188.550781 197.640625 188.738281 C 197.113281 189.125 196.640625 189.714844 196.054688 189.855469 C 193.34375 190.511719 190.589844 191.535156 187.859375 191.535156 C 183.84375 191.445312 179.886719 190.910156 175.992188 189.921875 C 173.632812 189.328125 171.558594 187.597656 169.394531 186.316406 C 168.457031 185.726562 167.46875 185.246094 166.429688 184.867188 C 165.394531 184.488281 164.328125 184.226562 163.230469 184.070312 C 162.136719 183.917969 161.039062 183.882812 159.9375 183.964844 C 158.835938 184.042969 157.753906 184.238281 156.691406 184.542969 C 155.140625 184.988281 153.828125 186.347656 152.4375 187.332031 C 149.230469 189.578125 146.03125 191.851562 142.832031 194.117188 C 139.25 196.636719 135.6875 199.234375 132.0625 201.710938 C 128.644531 204.042969 125.253906 206.410156 121.679688 208.421875 C 118.90625 209.917969 116.046875 211.222656 113.101562 212.332031 C 109.984375 213.601562 106.804688 214.707031 103.621094 215.816406 C 100.265625 216.980469 96.964844 218.164062 93.550781 219.171875 C 90.964844 219.917969 88.292969 220.34375 85.648438 220.847656 C 84.789062 221.09375 83.949219 221.394531 83.132812 221.753906 C 82.066406 222.15625 70.488281 227.058594 70.070312 226.277344 C 69.097656 225.722656 67.988281 221.570312 67.484375 220.65625 C 66.523438 218.628906 65.765625 216.523438 65.21875 214.347656 C 64.765625 212.820312 63.875 209.457031 63.453125 207.859375 Z M 165.464844 124.640625 C 166.054688 124.722656 166.621094 124.636719 167.160156 124.382812 C 167.699219 124.128906 168.125 123.746094 168.4375 123.238281 C 169.511719 121.746094 169.132812 120.761719 167.371094 120.300781 C 166.484375 119.949219 165.578125 119.671875 164.652344 119.460938 C 163.460938 119.3125 162.285156 119.390625 161.125 119.699219 C 159.890625 120.074219 159.773438 121.476562 160.570312 122.523438 C 161.148438 123.277344 161.871094 123.839844 162.742188 124.21875 C 163.613281 124.59375 164.519531 124.734375 165.464844 124.640625 Z M 165.464844 124.640625 " fill-opacity="1" fill-rule="nonzero"/><path fill="rgb(7.839966%, 61.959839%, 28.62854%)" d="M 216.292969 180.585938 C 218.746094 181.019531 220.925781 181.339844 223.066406 181.828125 C 229.0625 183.195312 235.230469 183.007812 241.277344 183.964844 C 241.484375 183.992188 241.695312 184.007812 241.90625 184.007812 C 245.347656 184.101562 248.8125 184.359375 252.246094 184.226562 C 256.511719 184.058594 260.765625 183.570312 265.023438 183.195312 C 267.402344 183.039062 269.765625 182.761719 272.117188 182.355469 C 274.089844 181.863281 276.027344 181.253906 277.925781 180.535156 C 279.746094 179.929688 281.5625 179.285156 283.398438 178.722656 C 284.675781 178.328125 285.363281 179.183594 285.800781 180.164062 C 286.15625 180.914062 286.355469 181.703125 286.40625 182.53125 C 286.453125 186.15625 287.78125 189.847656 286.445312 193.386719 C 285.113281 196.929688 283.988281 200.410156 281.570312 203.398438 C 279.546875 205.988281 277.675781 208.683594 275.953125 211.484375 C 275.441406 212.433594 275.214844 213.445312 275.28125 214.523438 C 275.347656 217.746094 275.230469 221.042969 275.871094 224.171875 C 276.390625 226.730469 277.890625 229.105469 278.96875 231.546875 C 279.386719 232.585938 279.859375 233.597656 280.394531 234.582031 C 281.730469 236.816406 283.089844 239.03125 284.53125 241.179688 C 285.664062 242.855469 286.964844 244.425781 288.132812 246.078125 C 288.476562 246.527344 288.640625 247.03125 288.621094 247.597656 C 288.621094 247.847656 287.847656 248.101562 287.394531 248.191406 C 283.660156 248.9375 279.949219 249.828125 276.179688 250.308594 C 272.972656 250.710938 269.699219 250.601562 266.460938 250.769531 C 263.488281 250.917969 260.433594 251.675781 257.550781 251.222656 C 253.742188 250.617188 249.996094 250.9375 246.203125 250.800781 C 243.96875 250.726562 241.710938 250.640625 239.488281 250.800781 C 235.25 251.085938 231.027344 251.53125 226.804688 251.902344 C 225.183594 252.035156 223.554688 252.050781 221.960938 252.296875 C 220.199219 252.582031 218.453125 252.957031 216.730469 253.417969 C 215.277344 253.804688 214.515625 253.417969 214.429688 252.019531 C 214.203125 247.707031 212.648438 243.8125 210.945312 239.910156 C 209.753906 237.183594 208.851562 234.367188 208.234375 231.453125 C 206.941406 225.320312 208.722656 219.707031 211.800781 214.449219 C 213.707031 211.199219 215.890625 208.097656 217.628906 204.765625 C 218.714844 202.695312 219.457031 200.507812 219.851562 198.203125 C 220.769531 192.5 220.289062 186.9375 216.90625 181.953125 C 216.65625 181.515625 216.453125 181.0625 216.292969 180.585938 Z M 249.703125 205.753906 C 249.375 205.328125 249.066406 204.554688 248.5625 204.378906 C 247.859375 204.234375 247.191406 204.335938 246.5625 204.679688 C 246.167969 204.875 245.941406 205.519531 245.722656 205.964844 C 242.894531 212.429688 240.074219 218.898438 237.269531 225.363281 C 236.640625 226.824219 236.945312 227.988281 238.109375 228.417969 C 239.578125 228.960938 240.160156 228.023438 240.628906 226.863281 C 243.433594 220.386719 246.269531 213.933594 249.089844 207.464844 C 249.324219 206.988281 249.460938 206.476562 249.703125 205.753906 Z M 227.945312 219.398438 C 229.574219 218.15625 231.09375 217.058594 232.546875 215.875 C 233.789062 214.875 234.03125 213.648438 233.226562 212.777344 C 232.167969 211.644531 231.125 212.207031 230.179688 212.953125 C 228.164062 214.539062 226.171875 216.152344 224.183594 217.753906 C 222.722656 218.925781 222.664062 220.078125 224.125 221.21875 C 226.222656 222.855469 228.375 224.429688 230.53125 225.992188 C 231.511719 226.695312 232.613281 226.949219 233.445312 225.824219 C 234.273438 224.699219 233.703125 223.777344 232.722656 223.023438 Z M 259.179688 219.398438 L 254.226562 223.171875 C 254.007812 223.296875 253.820312 223.460938 253.667969 223.664062 C 253.515625 223.867188 253.410156 224.089844 253.351562 224.335938 C 253.289062 224.582031 253.28125 224.832031 253.320312 225.078125 C 253.363281 225.328125 253.453125 225.5625 253.589844 225.773438 C 253.714844 226.003906 253.882812 226.191406 254.09375 226.339844 C 254.304688 226.492188 254.539062 226.585938 254.792969 226.628906 C 255.050781 226.671875 255.304688 226.65625 255.550781 226.578125 C 255.800781 226.503906 256.019531 226.378906 256.210938 226.203125 C 258.644531 224.492188 261.027344 222.707031 263.363281 220.859375 C 263.476562 220.785156 263.578125 220.699219 263.667969 220.601562 C 263.761719 220.503906 263.839844 220.394531 263.90625 220.277344 C 263.96875 220.160156 264.019531 220.035156 264.050781 219.902344 C 264.085938 219.773438 264.101562 219.640625 264.101562 219.507812 C 264.101562 219.371094 264.085938 219.238281 264.050781 219.109375 C 264.019531 218.980469 263.96875 218.855469 263.90625 218.738281 C 263.839844 218.617188 263.761719 218.511719 263.667969 218.410156 C 263.578125 218.3125 263.476562 218.226562 263.363281 218.15625 C 261.027344 216.226562 258.636719 214.347656 256.21875 212.527344 C 256.054688 212.363281 255.863281 212.246094 255.648438 212.171875 C 255.429688 212.097656 255.207031 212.078125 254.976562 212.109375 C 254.75 212.140625 254.539062 212.222656 254.351562 212.355469 C 254.160156 212.484375 254.011719 212.652344 253.902344 212.851562 C 253.613281 213.664062 253.632812 214.46875 253.949219 215.269531 C 254.160156 215.816406 254.925781 216.167969 255.460938 216.585938 Z M 259.179688 219.398438 " fill-opacity="1" fill-rule="nonzero"/><path fill="rgb(49.409485%, 30.979919%, 16.079712%)" d="M 181.976562 93.738281 C 179.671875 94.816406 177.320312 95.773438 174.917969 96.609375 C 170.636719 97.867188 166.320312 99.023438 161.949219 99.898438 C 158.265625 100.605469 154.550781 101.085938 150.808594 101.332031 C 146.746094 101.625 142.648438 101.75 138.578125 101.648438 C 132.433594 101.507812 126.253906 101.433594 120.203125 100.140625 C 115.03125 99.019531 109.875 97.839844 104.730469 96.589844 C 103.324219 96.210938 101.996094 95.652344 100.742188 94.914062 C 100.210938 94.441406 99.984375 93.855469 100.0625 93.152344 C 100.480469 90.738281 101.113281 88.382812 101.960938 86.085938 C 102.875 83.898438 104.292969 81.890625 107.15625 81.816406 C 108.683594 81.757812 110.210938 81.230469 111.714844 81.289062 C 113.222656 81.300781 114.660156 81.613281 116.035156 82.234375 C 117.410156 82.851562 118.597656 83.722656 119.605469 84.84375 C 121.554688 87.007812 123.457031 89.34375 126.445312 90.324219 C 128.582031 91.144531 130.792969 91.582031 133.078125 91.632812 C 133.332031 91.644531 133.574219 91.609375 133.8125 91.523438 C 134.046875 91.441406 134.257812 91.3125 134.445312 91.140625 C 134.628906 90.96875 134.773438 90.769531 134.878906 90.542969 C 134.980469 90.3125 135.035156 90.070312 135.042969 89.820312 C 134.898438 88.933594 134.492188 88.1875 133.835938 87.578125 C 133.566406 87.269531 132.867188 87.277344 132.347656 87.226562 C 129.351562 86.917969 126.546875 86.171875 124.238281 83.671875 C 124.652344 83.460938 124.96875 83.148438 125.296875 83.148438 C 132.1875 83.148438 139.089844 83.097656 145.988281 83.082031 L 147.25 83.082031 C 154.90625 83.160156 162.417969 84.339844 169.914062 85.71875 C 174.480469 86.554688 177.570312 89.15625 180.550781 92.226562 Z M 181.976562 93.738281 " fill-opacity="1" fill-rule="nonzero"/><path fill="rgb(99.609375%, 78.42865%, 4.708862%)" d="M 85.382812 99.125 L 90.519531 96.683594 C 91.1875 96.417969 91.828125 96.089844 92.433594 95.703125 C 94.714844 93.914062 96.707031 94.953125 98.929688 95.976562 C 101.753906 97.226562 104.640625 98.300781 107.59375 99.199219 C 109.847656 99.957031 112.144531 100.546875 114.484375 100.980469 C 119.203125 101.757812 123.945312 102.457031 128.695312 102.960938 C 138.636719 104.019531 148.539062 103.738281 158.40625 102.121094 C 162.214844 101.375 166.144531 101.078125 169.863281 100.039062 C 174.042969 98.765625 178.132812 97.25 182.136719 95.5 C 182.976562 95.15625 183.320312 95.207031 183.816406 95.84375 C 185.628906 98.3125 187.441406 100.761719 189.320312 103.304688 C 185.332031 105.503906 181.132812 107.199219 176.730469 108.378906 C 173.261719 109.21875 169.847656 110.308594 166.335938 110.894531 C 161.828125 111.691406 157.261719 112.246094 152.714844 112.683594 C 148.699219 113.070312 144.664062 113.296875 140.632812 113.3125 C 133.742188 113.421875 126.898438 112.910156 120.101562 111.785156 C 116.121094 111.074219 112.042969 110.785156 108.148438 109.773438 C 100.59375 107.792969 93.035156 105.460938 86.722656 100.542969 C 86.242188 100.101562 85.792969 99.628906 85.382812 99.125 Z M 85.382812 99.125 " fill-opacity="1" fill-rule="nonzero"/><path fill="rgb(99.21875%, 78.42865%, 5.099487%)" d="M 207.261719 172.808594 C 214.328125 172.699219 221.40625 172.605469 228.472656 172.480469 L 286.621094 171.472656 C 287.144531 171.472656 287.671875 171.472656 288.160156 171.472656 C 288.25 171.582031 288.378906 171.648438 288.386719 171.734375 C 288.695312 176.765625 288.6875 176.765625 283.675781 176.835938 C 265.027344 177.164062 246.378906 177.503906 227.726562 177.859375 C 221.449219 177.976562 215.136719 178.015625 208.871094 178.085938 C 208.460938 178.085938 208.035156 178.085938 207.628906 178.027344 C 207.898438 176.347656 208.855469 174.746094 207.261719 173.320312 Z M 207.261719 172.808594 " fill-opacity="1" fill-rule="nonzero"/><path fill="rgb(98.039246%, 77.648926%, 6.669617%)" d="M 207.261719 172.808594 L 207.261719 173.320312 C 205.28125 172.976562 203.96875 174.199219 202.460938 175.15625 C 200.945312 176.042969 199.367188 176.796875 197.726562 177.414062 C 196.769531 177.738281 195.792969 177.996094 194.804688 178.195312 C 194.6875 177.496094 194.535156 176.566406 194.367188 175.675781 C 194.347656 175.332031 194.25 175.003906 194.082031 174.703125 C 192.824219 173.101562 192.695312 173.023438 191.351562 174.8125 C 189.171875 177.714844 186.367188 178.8125 182.765625 178.773438 C 176.890625 178.707031 171.011719 178.957031 165.1875 179.066406 C 164.675781 179.066406 164.164062 179.066406 163.40625 179.066406 C 163.675781 177.136719 163.929688 175.359375 164.1875 173.5625 Z M 207.261719 172.808594 " fill-opacity="1" fill-rule="nonzero"/><path fill="rgb(34.509277%, 31.759644%, 28.239441%)" d="M 217.066406 153.628906 C 214.546875 152.308594 213.40625 150.210938 212.128906 148.148438 C 211.289062 146.832031 210.125 145.75 209.183594 144.5 C 207.957031 142.863281 208.199219 140.949219 208.804688 139.273438 C 209.5625 137.566406 210.464844 135.945312 211.515625 134.40625 C 211.84375 133.851562 212.214844 133.332031 212.617188 132.726562 C 216.074219 133.566406 219.691406 134.515625 222.648438 136.972656 C 223.050781 137.308594 223.554688 137.929688 223.488281 138.347656 C 222.890625 142.871094 221.902344 147.292969 219.289062 151.160156 C 218.617188 152.042969 217.875 152.863281 217.066406 153.628906 Z M 210.617188 139.40625 C 209.324219 143.417969 212.421875 146.359375 215.5625 146.015625 C 217.636719 145.789062 219.761719 144.164062 219.761719 142.5 C 219.78125 141.933594 219.578125 141.457031 219.15625 141.074219 C 218.632812 140.921875 218.140625 140.992188 217.679688 141.285156 C 216.964844 141.679688 216.359375 142.265625 215.679688 142.71875 C 214.757812 143.347656 213.800781 143.644531 212.976562 142.550781 C 212.15625 141.460938 211.457031 140.53125 210.617188 139.40625 Z M 210.617188 139.40625 " fill-opacity="1" fill-rule="nonzero"/><path fill="rgb(5.879211%, 16.079712%, 29.019165%)" d="M 222.992188 179.652344 C 225.015625 179.542969 227.03125 179.386719 229.054688 179.359375 C 240.519531 179.226562 251.992188 179.109375 263.46875 179.015625 C 268.011719 179.015625 272.554688 179.015625 276.960938 179.015625 C 274.746094 179.613281 272.378906 180.433594 269.933594 180.84375 C 267.492188 181.257812 264.796875 181.332031 262.226562 181.558594 C 258.871094 181.859375 255.4375 182.347656 252.039062 182.449219 C 248.429688 182.679688 244.839844 182.554688 241.257812 182.0625 C 238.078125 181.492188 234.929688 181.851562 231.796875 181.5 C 229.984375 181.289062 228.230469 180.585938 226.433594 180.214844 C 225.320312 180.039062 224.203125 179.921875 223.078125 179.863281 C 223.042969 179.796875 223.015625 179.726562 222.992188 179.652344 Z M 222.992188 179.652344 " fill-opacity="1" fill-rule="nonzero"/><path fill="rgb(74.508667%, 44.709778%, 46.269226%)" d="M 187.449219 164.921875 C 187.449219 165.40625 187.375 165.894531 187.339844 166.378906 C 187.171875 166.488281 186.855469 166.597656 186.84375 166.707031 C 186.84375 168.300781 186.84375 169.894531 186.84375 171.742188 C 184.328125 171.742188 181.714844 171.742188 179.070312 171.742188 C 178.769531 171.742188 178.492188 171.238281 178.164062 171.179688 C 177.621094 171.070312 177.074219 171.070312 176.527344 171.179688 C 175.753906 171.410156 175 171.691406 174.261719 172.019531 C 173.867188 169.417969 172.070312 168.300781 170.402344 167.152344 C 170.082031 166.933594 169.25 167.304688 168.722656 167.539062 C 167.832031 167.949219 167.1875 167.957031 166.75 166.917969 C 166.371094 166.019531 165.910156 165.164062 165.289062 163.972656 C 166.691406 164.054688 167.808594 164.171875 169.007812 164.207031 C 174.496094 164.359375 179.996094 164.476562 185.484375 164.644531 C 186.144531 164.695312 186.800781 164.785156 187.449219 164.921875 Z M 187.449219 164.921875 " fill-opacity="1" fill-rule="nonzero"/><path fill="rgb(49.409485%, 30.979919%, 16.079712%)" d="M 192.824219 109.855469 C 191.324219 110.957031 190.101562 112.308594 189.152344 113.90625 C 188.515625 115.132812 187.046875 114.746094 185.929688 114.152344 C 183.949219 113.09375 182 111.988281 180.054688 110.894531 C 179.464844 110.570312 178.894531 110.226562 178.316406 109.890625 L 190.152344 105.074219 Z M 192.824219 109.855469 " fill-opacity="1" fill-rule="nonzero"/><path fill="rgb(94.898987%, 94.119263%, 94.119263%)" d="M 192.46875 175.851562 C 192.773438 176.601562 192.902344 177.378906 192.859375 178.1875 C 192.820312 178.992188 192.605469 179.753906 192.226562 180.46875 C 191.613281 181.53125 191.125 182.683594 190.445312 183.707031 C 189.765625 184.730469 188.859375 184.542969 187.929688 184.089844 C 187.363281 183.820312 186.828125 183.496094 186.324219 183.117188 C 186.082031 182.925781 185.8125 182.421875 185.898438 182.195312 C 186.300781 181.195312 186.628906 180.003906 187.894531 179.789062 C 189.808594 179.453125 190.757812 178.007812 191.808594 176.648438 C 191.964844 176.441406 192.152344 176.246094 192.46875 175.851562 Z M 192.46875 175.851562 " fill-opacity="1" fill-rule="nonzero"/><path fill="rgb(94.119263%, 93.328857%, 93.328857%)" d="M 197.253906 179.6875 C 199.394531 178.621094 201.542969 177.5625 203.660156 176.480469 C 204.375 176.113281 205.035156 175.644531 206.085938 174.972656 C 205.859375 178.707031 203.347656 180.617188 201.527344 183.234375 C 200.980469 180.566406 200.6875 180.339844 198.4375 180.652344 C 198.027344 180.332031 197.65625 180.003906 197.253906 179.6875 Z M 197.253906 179.6875 " fill-opacity="1" fill-rule="nonzero"/><path fill="rgb(47.059631%, 29.40979%, 15.289307%)" d="M 180.171875 85.550781 L 182.480469 84.515625 C 184.417969 86.042969 184.394531 88.300781 184.882812 90.507812 Z M 180.171875 85.550781 " fill-opacity="1" fill-rule="nonzero"/><path fill="rgb(86.268616%, 85.488892%, 85.488892%)" d="M 206.640625 166.457031 C 206.15625 165.070312 205.777344 163.660156 205.5 162.21875 C 205.5 161.875 206.523438 161.378906 207.078125 160.96875 C 208.320312 163.023438 207.472656 164.644531 206.640625 166.457031 Z M 206.640625 166.457031 " fill-opacity="1" fill-rule="nonzero"/><path fill="rgb(71.369934%, 43.528748%, 45.098877%)" d="M 197.253906 179.6875 C 197.65625 180.003906 198.050781 180.332031 198.4375 180.652344 C 197.339844 180.804688 196.246094 180.929688 195.148438 181.105469 C 194.75 181.203125 194.359375 181.332031 193.980469 181.492188 C 194.332031 179.207031 196.128906 180.132812 197.253906 179.6875 Z M 197.253906 179.6875 " fill-opacity="1" fill-rule="nonzero"/><path fill="rgb(79.219055%, 78.42865%, 78.42865%)" d="M 198.304688 184.242188 L 199.144531 182.0625 C 199.613281 182.96875 199.890625 183.511719 200.277344 184.242188 Z M 198.304688 184.242188 " fill-opacity="1" fill-rule="nonzero"/><path fill="rgb(2.749634%, 1.959229%, 1.568604%)" d="M 165.464844 124.640625 C 164.519531 124.734375 163.613281 124.59375 162.742188 124.214844 C 161.871094 123.835938 161.148438 123.269531 160.570312 122.515625 C 159.773438 121.476562 159.890625 120.074219 161.125 119.6875 C 162.285156 119.386719 163.460938 119.308594 164.652344 119.453125 C 165.578125 119.660156 166.484375 119.941406 167.371094 120.292969 C 169.132812 120.746094 169.511719 121.734375 168.4375 123.230469 C 168.128906 123.742188 167.703125 124.125 167.164062 124.382812 C 166.621094 124.636719 166.054688 124.722656 165.464844 124.640625 Z M 165.464844 124.640625 " fill-opacity="1" fill-rule="nonzero"/><path fill="rgb(98.429871%, 78.42865%, 5.879211%)" d="M 249.703125 205.753906 C 249.460938 206.476562 249.324219 206.988281 249.125 207.433594 C 246.304688 213.902344 243.464844 220.355469 240.664062 226.824219 C 240.160156 227.988281 239.589844 228.929688 238.144531 228.375 C 236.984375 227.945312 236.683594 226.789062 237.304688 225.328125 C 240.101562 218.863281 242.921875 212.398438 245.757812 205.929688 C 245.960938 205.453125 246.195312 204.832031 246.597656 204.640625 C 247.226562 204.296875 247.894531 204.199219 248.59375 204.34375 C 249.066406 204.554688 249.375 205.328125 249.703125 205.753906 Z M 249.703125 205.753906 " fill-opacity="1" fill-rule="nonzero"/><path fill="rgb(98.429871%, 78.42865%, 6.269836%)" d="M 227.945312 219.398438 L 232.722656 223.023438 C 233.703125 223.761719 234.292969 224.699219 233.445312 225.816406 C 232.59375 226.933594 231.511719 226.65625 230.53125 225.984375 C 228.375 224.429688 226.222656 222.855469 224.125 221.210938 C 222.664062 220.078125 222.722656 218.925781 224.183594 217.753906 C 226.171875 216.140625 228.164062 214.53125 230.179688 212.953125 C 231.125 212.199219 232.160156 211.636719 233.226562 212.769531 C 234.066406 213.609375 233.789062 214.867188 232.546875 215.875 C 231.09375 217.058594 229.574219 218.15625 227.945312 219.398438 Z M 227.945312 219.398438 " fill-opacity="1" fill-rule="nonzero"/><path fill="rgb(98.429871%, 78.42865%, 5.879211%)" d="M 259.179688 219.398438 C 257.878906 218.414062 256.664062 217.5 255.46875 216.578125 C 254.933594 216.167969 254.167969 215.816406 253.960938 215.261719 C 253.640625 214.464844 253.621094 213.664062 253.910156 212.851562 C 254.019531 212.652344 254.167969 212.484375 254.359375 212.351562 C 254.546875 212.21875 254.753906 212.136719 254.984375 212.105469 C 255.210938 212.070312 255.433594 212.089844 255.652344 212.164062 C 255.871094 212.238281 256.0625 212.355469 256.226562 212.519531 C 258.644531 214.347656 261.035156 216.21875 263.371094 218.148438 C 263.484375 218.21875 263.585938 218.304688 263.679688 218.40625 C 263.769531 218.503906 263.847656 218.613281 263.914062 218.730469 C 263.976562 218.847656 264.027344 218.972656 264.058594 219.105469 C 264.09375 219.234375 264.109375 219.367188 264.109375 219.503906 C 264.109375 219.636719 264.09375 219.769531 264.058594 219.902344 C 264.027344 220.03125 263.976562 220.15625 263.914062 220.273438 C 263.847656 220.394531 263.769531 220.5 263.679688 220.601562 C 263.585938 220.699219 263.484375 220.785156 263.371094 220.859375 C 261.035156 222.695312 258.652344 224.492188 256.21875 226.195312 C 256.027344 226.371094 255.808594 226.496094 255.5625 226.574219 C 255.3125 226.648438 255.0625 226.664062 254.804688 226.625 C 254.550781 226.582031 254.316406 226.488281 254.101562 226.339844 C 253.890625 226.191406 253.722656 226 253.597656 225.773438 C 253.460938 225.5625 253.371094 225.332031 253.328125 225.082031 C 253.285156 224.832031 253.292969 224.582031 253.355469 224.335938 C 253.414062 224.089844 253.523438 223.863281 253.675781 223.664062 C 253.828125 223.460938 254.015625 223.296875 254.238281 223.171875 Z M 259.179688 219.398438 " fill-opacity="1" fill-rule="nonzero"/><path fill="rgb(4.309082%, 3.138733%, 2.749634%)" d="M 210.617188 139.40625 C 211.457031 140.539062 212.214844 141.554688 212.96875 142.550781 C 213.726562 143.550781 214.75 143.347656 215.671875 142.726562 C 216.359375 142.265625 216.964844 141.679688 217.679688 141.292969 C 218.136719 141 218.628906 140.925781 219.15625 141.074219 C 219.570312 141.464844 219.773438 141.941406 219.761719 142.511719 C 219.71875 144.1875 217.628906 145.800781 215.5625 146.027344 C 212.449219 146.359375 209.359375 143.417969 210.617188 139.40625 Z M 210.617188 139.40625 " fill-opacity="1" fill-rule="nonzero"/></svg>